<?xml version="1.0" encoding="utf-8"?>
<!-- Generator: Adobe Illustrator 15.0.0, SVG Export Plug-In . SVG Version: 6.00 Build 0)  -->
<!DOCTYPE svg PUBLIC "-//W3C//DTD SVG 1.1//EN" "http://www.w3.org/Graphics/SVG/1.1/DTD/svg11.dtd">
<svg version="1.1" id="Layer_1" xmlns="http://www.w3.org/2000/svg" xmlns:xlink="http://www.w3.org/1999/xlink" x="0px" y="0px"
	 width="234px" height="152px" viewBox="0 224 234 152" enable-background="new 0 224 234 152" xml:space="preserve">
<g>
	<path fill="#F7F1E7" d="M231.661,331.452v-63.626c0,0,0-4.025-3.925-4.912l-107.532-24.334c0,0-3.925-0.887-7.85,0.005
		L5.537,262.911c0,0-3.925,0.896-3.925,4.92v63.621c0,0,0,4.022,3.917,4.941l106.821,25.01c0,0,3.92,0.917,7.836,0.004
		l107.546-25.019C227.744,336.385,231.661,335.475,231.661,331.452L231.661,331.452z M227.609,330.993
		c0,2.024-1.976,2.466-1.976,2.466L118.25,357.561c-1.976,0.444-3.953-0.006-3.953-0.006L7.612,333.459
		c-1.976-0.445-1.976-2.472-1.976-2.472v-62.661c0-2.026,1.98-2.463,1.98-2.463l106.681-23.438c1.981-0.437,3.957-0.005,3.957-0.005
		l107.375,23.443c1.98,0.432,1.98,2.457,1.98,2.457V330.993L227.609,330.993z"/>
	<path fill="#F7F1E7" d="M231.661,331.452v-63.626c0,0,0-4.025-3.925-4.912l-107.532-24.334c0,0-3.925-0.887-7.85,0.005
		L5.537,262.911c0,0-3.925,0.896-3.925,4.92v63.621c0,0,0,4.022,3.917,4.941l106.821,25.01c0,0,3.92,0.917,7.836,0.004
		l107.546-25.019C227.744,336.385,231.661,335.475,231.661,331.452L231.661,331.452z M227.609,330.993
		c0,2.024-1.976,2.466-1.976,2.466L118.25,357.561c-1.976,0.444-3.953-0.006-3.953-0.006L7.612,333.459
		c-1.976-0.445-1.976-2.472-1.976-2.472v-62.661c0-2.026,1.98-2.463,1.98-2.463l106.681-23.438c1.981-0.437,3.957-0.005,3.957-0.005
		l107.375,23.443c1.98,0.432,1.98,2.457,1.98,2.457V330.993L227.609,330.993z"/>
	<path fill="#F7F1E7" d="M225.588,330.781V268.56c0,0,0-1.013-0.989-1.225l-107.321-22.979c0,0-0.991-0.212-1.981,0L8.656,267.334
		c0,0-0.99,0.212-0.99,1.225v62.217c0,0,0,1.013,0.99,1.233l106.641,23.622c0,0,0.99,0.223,1.976,0l107.326-23.627
		C224.599,332.01,225.588,331.794,225.588,330.781L225.588,330.781z M224.688,330.164c0,0.991-0.972,1.203-0.972,1.203
		l-106.488,23.157c-0.972,0.213-1.94,0-1.94,0L9.48,331.367c-0.968-0.212-0.968-1.207-0.968-1.207v-60.975
		c0-0.995,0.973-1.197,0.973-1.197l105.808-22.525c0.973-0.207,1.94,0,1.94,0l106.483,22.529c0.972,0.207,0.972,1.198,0.972,1.198
		V330.164L224.688,330.164z"/>
	<path fill="#F7F1E7" d="M130.003,273.649c-0.644-1.106-1.827-1.921-3.092-2.309c-1.224-0.373-3.047-0.31-4.695,0.441
		c-1.525,0.699-2.89,2.018-3.686,2.791c-0.577,0.553-1.104,1.202-1.382,1.5c0.238-0.864,0.36-1.359,0.386-1.908
		c0.031-0.666-0.342-1.283-1.008-1.261c-0.667,0.023-1.122,0.194-2.183,0.995c-1.063,0.797-2.747,1.877-2.669,2.399
		c0.072,0.522,0.779,0.495,0.553,1.193c-0.045,0.135-0.144,0.454-0.279,0.892c-0.166,0.472-0.364,0.981-0.54,1.458
		c-0.306,0.819-1.508,3.961-2.084,5.572c-0.558,1.563-4.717,12.806-4.717,12.806s-6.688,17.055-7.346,18.685
		c-0.657,1.63-1.103,2.633-1.288,3.124c-0.188,0.491-1.494,3.318-1.278,3.772c0.149,0.319,0.513,0.347,0.829,0.193
		c0.315-0.152,2.44-1.477,3.02-1.813c0.617-0.361,1.103-0.604,1.949-1.09c0.801-0.463,0.887-0.495,1.072-0.697
		c0.184-0.203,2.268-6.536,2.624-7.531c0.356-0.999,3.525-10.064,3.809-10.957c0.284-0.891,2.143-5.811,2.143-5.811
		s0.639,1.063,1.742,1.955c1.517,1.225,3.269,2.062,5.618,1.768c2.363-0.296,4.969-1.655,7.328-4.923
		c2.157-2.989,4.286-7.396,5.375-11.969c0.311-1.306,0.662-3.746,0.706-5.002C130.943,276.667,130.791,275.001,130.003,273.649
		L130.003,273.649z M125.794,278.602c0.044,1.553-0.347,3.489-0.954,5.285c-0.955,2.813-2.647,6.917-6.159,8.961
		c-1.332,0.774-2.786,0.748-3.619,0.14c-1.26-0.923-2.43-4.7,1.18-11.15c0.792-1.414,1.818-2.633,3.024-3.768
		c2.111-1.985,4.15-2.507,4.983-2.215C125.119,276.158,125.749,276.99,125.794,278.602L125.794,278.602z"/>
	<path fill="#F7F1E7" d="M106.132,279.691c-0.644-1.107-1.827-1.921-3.092-2.31c-1.224-0.373-3.047-0.31-4.695,0.442
		c-1.526,0.698-2.89,2.017-3.687,2.791c-0.513,0.495-0.995,1.071-1.288,1.396c0.234-0.853,0.355-1.342,0.383-1.882
		c0.031-0.667-0.342-1.283-1.008-1.261c-0.667,0.022-1.121,0.198-2.184,0.995c-1.062,0.797-2.746,1.877-2.669,2.4
		c0.014,0.081,0.041,0.148,0.077,0.211c0.126,0.306,0.463,0.513,0.374,1.014c-0.126,0.67-0.5,1.575-0.807,2.394
		c-0.306,0.82-1.507,3.96-2.084,5.573c-0.558,1.563-4.717,12.806-4.717,12.806s-6.688,17.057-7.346,18.686
		c-0.658,1.629-1.104,2.634-1.292,3.123c-0.189,0.492-1.495,3.318-1.278,3.773c0.148,0.319,0.513,0.346,0.828,0.193
		c0.315-0.153,2.439-1.477,3.021-1.811c0.617-0.359,1.103-0.603,1.944-1.088c0.802-0.464,0.887-0.495,1.071-0.703
		c0.185-0.202,2.269-6.53,2.625-7.531c0.355-0.999,3.524-10.064,3.808-10.955c0.284-0.896,2.143-5.812,2.143-5.812
		s0.639,1.063,1.742,1.953c1.517,1.225,3.268,2.063,5.618,1.77c2.363-0.297,4.969-1.652,7.328-4.925
		c2.156-2.989,4.285-7.396,5.374-11.964c0.311-1.306,0.662-3.745,0.707-5C107.078,282.707,106.92,281.046,106.132,279.691
		L106.132,279.691z M101.928,284.642c0.045,1.553-0.347,3.489-0.954,5.285c-0.954,2.813-2.647,6.918-6.158,8.962
		c-1.332,0.773-2.786,0.746-3.619,0.139c-1.261-0.927-2.431-4.7,1.179-11.15c0.792-1.413,1.819-2.633,3.025-3.767
		c2.111-1.986,4.15-2.508,4.983-2.215C101.249,282.198,101.883,283.031,101.928,284.642L101.928,284.642z"/>
	<path fill="#F7F1E7" d="M58.977,273.412c-0.171-0.382-1.238-0.418-1.967-0.45c-0.918-0.036-2.408,0.139-3.79,0.63
		c-1.382,0.492-3.281,1.805-3.281,1.805s-5.023,0.788-8.08,2.062c-3.057,1.273-7.959,4.15-12.217,8.683
		c-4.258,4.533-7.504,9.821-9.691,15.962c-2.183,6.14-2.341,13.27,0.256,17.582c3.11,5.163,8.08,6.837,12.523,6.45
		c4.839-0.419,9.299-3.296,12.032-7.203c1.9-2.719,4.087-8.885,5.159-12.379c1.503-4.893,3.947-10.658,5.586-11.077
		c0.463-0.117,0.905-0.265,0.801-0.716c-0.104-0.449-0.608-0.57-1.508-0.418c-0.9,0.153-3.12,1.057-4.6,2.839
		c-1.377,1.662-2.66,4.276-3.592,6.226c-0.909,1.904-2.219,4.849-3.659,7.013c-1.931,2.905-4.615,6.996-7.666,8.009
		c-3.052,1.014-5.789,0.121-7.162-1.644c-1.854-2.38-1.922-5.649-1.598-8.115c0.324-2.466,0.963-7.059,3.183-11.794
		c2.219-4.734,5.613-9.447,8.125-11.82c2.512-2.372,5.05-4.281,6.369-5.068c1.125-0.671,2.845-1.401,2.845-1.401
		s-1.387,2.166-0.292,3.985c1.089,1.818,3.596,3.393,7.26,2.317c3.646-1.071,4.438-3.461,4.632-4.861
		c0.193-1.399-0.518-2.534-1.85-3.404c-1.333-0.864-2.904-1.062-2.904-1.062s0.824-0.828,1.927-1.035
		c1.062-0.199,1.747-0.1,2.318-0.185C58.531,274.29,59.193,273.897,58.977,273.412L58.977,273.412z M53.999,278.548
		c0.738,0.549,1.152,1.481,0.635,2.255c-0.519,0.779-1.22,0.954-1.67,1.004c-0.451,0.05-1.548,0.005-2.156-0.566
		c-0.607-0.572-0.823-1.526-0.4-2.206c0.509-0.816,1.184-0.982,1.184-0.982S53.013,277.81,53.999,278.548L53.999,278.548z"/>
	<path fill="#F7F1E7" d="M163.033,281.739c-2.16,1.935-4.159,3.803-6.617,6.342c-2.458,2.54-4.857,4.831-4.857,4.831
		s2.714-9.643,3.723-12.712c1.018-3.106,2.489-7.485,3.201-9.632c0.711-2.144,1.417-4.115,1.764-4.714
		c0.347-0.598,0.581-1.111,0.095-1.413c-0.491-0.301-1.099-0.13-1.801,0.149c-0.703,0.279-1.607,0.693-2.471,1.215
		c-0.864,0.527-1.274,0.989-1.873,1.652c-0.594,0.662-0.639,1.413-0.76,2.345c-0.131,1-2.328,6.856-3.183,8.169
		c-0.856,1.319-2.971,4.164-4.849,6.059c-1.877,1.896-4.334,4.102-5.771,4.908c-1.278,0.72-2.529,0.922-3.132,0.576
		c-0.599-0.346-0.378-0.958-0.059-1.778c0.311-0.806,1.129-2.889,1.999-5.189c0.882-2.346,3.453-8.49,3.993-9.926
		c0.541-1.441,0.801-2.097,0.905-2.858s-0.266-1.503-1.03-1.544c-0.766-0.041-1.302,0.113-2.603,0.923
		c-1.295,0.81-3.331,1.873-3.299,2.48c0.032,0.607,0.842,0.643,0.514,1.422c-0.329,0.778-2.926,7.126-3.489,8.485
		c-0.77,1.858-1.71,3.947-2.512,5.887c-0.81,1.967-1.526,3.678-1.436,5.141c0.058,1.022,0.689,2.079,2.043,2.755
		c1.305,0.652,3.375,0.914,5.145,0.46c1.994-0.509,3.169-1.293,4.821-2.67c1.651-1.377,2.799-2.673,3.713-3.587
		c0.914-0.909,2.12-2.435,2.12-2.435s-1.372,4.636-2.205,7.207c-0.833,2.569-2.669,8.038-2.669,8.038s-3.718,3.921-6.122,6.353
		c-2.399,2.43-5.717,5.684-5.717,5.684s-4.119-2.178-9.957-2.31c-5.838-0.129-10.807,1.442-13.491,3.863
		c-2.682,2.426-3.961,5.041-4.123,7.846s1.647,6.153,5.091,7.558c7.463,3.053,13.891-3.096,15.687-4.726
		c1.827-1.653,3.597-3.525,4.402-4.417c0.806-0.891,2.598-2.817,2.598-2.817s1.373,1.175,2.066,3.35
		c0.693,2.174,0.828,4.033,0.796,4.618s-0.378,0.981-0.333,1.161c0.04,0.181,0.216,0.613,0.482,0.639
		c0.27,0.027,2.335-1.215,3.673-1.822c1.337-0.607,3.646-1.664,3.826-1.796c0.18-0.131,3.97-12.576,4.871-15.764
		c0.9-3.188,2.804-9.512,2.804-9.512s5.325-5.96,8.93-9.714c2.156-2.246,4.682-4.771,7.018-6.955 M128.211,317.245
		c0,0-1.147,1.274-2.799,2.873c-1.972,1.903-3.084,2.921-5.87,4.785c-2.543,1.7-4.294,2.115-5.757,2.2
		c-1.391,0.08-2.94-0.388-3.713-1.188c-0.751-0.776-1.31-1.833-0.792-3.664c0.554-1.959,1.886-3.66,3.808-4.934
		c1.936-1.279,5.181-1.864,8.458-1.721C124.822,315.747,128.211,317.245,128.211,317.245L128.211,317.245z M138.371,314.274
		c-0.612,1.841-1.301,4.223-1.508,4.083c-0.121-0.08-0.716-0.554-1.431-1.059c-0.675-0.48-1.467-0.958-1.576-1.083
		c-0.09-0.101,1.535-1.702,2.633-2.878c1.099-1.17,3.012-3.25,3.146-3.199C139.798,310.2,138.997,312.393,138.371,314.274
		L138.371,314.274z"/>
	<path fill="#F7F1E7" d="M83.041,283.333c0.09-0.667-0.288-1.306-1.049-1.329c-0.756-0.022-1.287,0.117-2.561,0.843
		c-1.274,0.724-3.273,1.679-3.228,2.205c0.044,0.527,0.72,0.5,0.576,1.238c-0.009,0.041-0.013,0.081-0.018,0.126
		c-0.05,0.221-0.122,0.472-0.208,0.766c-0.004,0.008-0.009,0.018-0.013,0.027h0.004c-0.036,0.121-0.077,0.243-0.122,0.378
		c-0.283,0.846-1.242,3.461-2.17,5.351c-0.932,1.895-1.188,2.585-2.966,5.353c-1.778,2.763-3.021,4.074-4.002,5.155
		c-0.986,1.084-2.125,1.871-2.827,2.354c-0.707,0.48-1.495,0.759-2.008,0.48c-0.585-0.319-0.612-0.892-0.4-1.534
		c0.157-0.482,0.729-1.828,1.769-4.799s2.165-6.181,2.642-7.648c0.477-1.471,1.094-2.827,0.378-4.429
		c-0.711-1.602-2.921-1.121-4.781-0.815c-1.796,0.292-4.055,0.77-6.481,1.404c-2.31,0.604-3.542,1.026-5.091,1.563
		c-1.913,0.662-4.29,1.813-6.216,2.958c-1.954,1.162-3.236,2.075-5.078,3.83c-1.81,1.724-3.133,3.38-4.227,4.947
		c-1.062,1.521-2.413,3.349-0.891,5.185c1.666,2.005,4.654,0.531,5.744-0.854c1.094-1.387,3.074-4.844,4.016-6.154
		c0.945-1.309,2.561-3.154,4.213-4.42c1.584-1.21,4.384-2.917,7.369-3.803c3.389-1.009,5.163-1.18,5.406-0.859
		c0.242,0.318-2.076,6.782-2.548,8.209c-0.473,1.432-2.565,6.717-2.971,8.014c-0.406,1.296-1.063,2.925-1.084,4.182
		c-0.023,1.255,0.531,2.623,1.976,3.325c1.45,0.697,3.263,0.671,4.794,0.051c1.858-0.757,3.732-2.399,4.686-3.443
		c1.17-1.279,4.042-4.688,4.672-5.433c-0.086,0.323-0.373,1.898-0.117,2.722s1.089,1.814,2.755,1.847
		c1.237,0.022,2.228-0.163,4.087-1.166c1.859-1.004,4.785-4.029,5.825-5.078c0.505-0.485-0.405-4.028-1.207-2.31
		c-0.697,1.504-1.994,2.301-2.966,2.755c-0.972,0.455-1.58,0.486-2.093,0.086c-0.509-0.401-0.356-1.544-0.113-2.553
		c0.243-1.008,1.62-4.722,1.953-5.771c0.333-1.048,1.27-3.349,2.003-5.446c0.544-1.558,1.116-3.335,1.467-4.393
		c0.109-0.256,0.203-0.468,0.261-0.621C82.703,284.575,82.951,283.995,83.041,283.333L83.041,283.333z"/>
	<path fill="#F7F1E7" d="M157.583,290.481c1.49-1.543,2.903-2.931,4.086-3.965c2.945-2.575,6.041-5.604,9.286-5.942
		c3.246-0.337,3.439,1.396,3.192,2.418c-0.23,0.954-1.409,2.016-3.538,2.259c-1.85,0.211-3.272-0.445-4.001-0.311
		c-0.726,0.139-1.125,0.743-0.347,1.359c1.157,0.914,2.535,1.278,4.173,1.486c1.581,0.198,3.413,0.243,5.352-0.649
		c1.954-0.895,3.335-2.511,3.322-5.104c-0.009-1.855-0.955-3.228-2.404-3.908c-1.296-0.607-3.339-1.058-6.121-0.459
		c-2.184,0.469-4.947,1.788-7.468,3.97c-2.3,1.989-5.104,4.964-7.387,7.233"/>
	<path fill="#F7F1E7" d="M162.494,311.11c1.431-4.83,2.043-6.978,1.301-8.147c-0.415-0.64-1.157-0.991-2.53-0.648l-3.97,0.989
		l-5.82,19.654l3.97-0.989c1.373-0.344,2.458-1.153,3.345-2.113C160.4,318.101,161.062,315.94,162.494,311.11L162.494,311.11z
		 M160.423,311.629c-1.333,4.5-1.854,6.035-2.759,7.13c-0.418,0.513-0.99,0.936-1.666,1.106l-1.828,0.455l4.565-15.404l1.828-0.454
		c0.675-0.166,1.066,0.017,1.223,0.388C162.133,305.628,161.755,307.127,160.423,311.629L160.423,311.629z M169.835,318.381
		l0.629-2.125l-4.551,1.134l1.981-6.68l3.925-0.977l0.629-2.125l-3.925,0.977l1.954-6.6l4.551-1.134l0.63-2.125l-6.621,1.652
		l-5.82,19.652L169.835,318.381L169.835,318.381z M182.183,310.421c0.918-3.091,0.869-4.356-0.811-4.78l-1.656-0.432
		c-1.175-0.319-1.27-0.832-0.697-2.769c0.301-1.021,0.732-1.868,1.295-2.498c0.396-0.432,0.9-0.787,1.503-0.937
		c0.648-0.161,1.036-0.026,1.197,0.317c0.252,0.499,0.135,1.192-0.175,2.241l2.07-0.519c0.531-1.795,0.644-2.997,0.063-3.749
		c-0.438-0.554-1.251-0.734-2.508-0.423c-1.129,0.284-2.169,0.922-3.056,1.81c-1.139,1.126-1.985,2.642-2.494,4.352
		c-0.881,2.98-0.634,3.944,0.877,4.331l1.68,0.423c1.197,0.315,1.283,0.933,0.612,3.196c-0.382,1.296-0.702,2.066-1.332,2.76
		c-0.428,0.463-0.959,0.828-1.657,0.998c-0.648,0.164-1.057,0.032-1.243-0.252c-0.292-0.436-0.203-1.125,0.186-2.421l-2.071,0.518
		c-0.621,2.098-0.693,3.166-0.167,3.876c0.446,0.603,1.333,0.765,2.656,0.437c1.373-0.343,2.521-1.063,3.385-1.945
		C180.953,313.82,181.575,312.465,182.183,310.421L182.183,310.421z M186.229,314.296l5.821-19.651l-2.071,0.517l-5.82,19.651
		L186.229,314.296L186.229,314.296z M199.445,306.627l1.725-5.824l-3.971,0.99l-0.589,1.985l1.899-0.475l-1.162,3.921
		c-0.472,1.604-1.508,2.909-2.71,3.205c-0.675,0.167-1.017-0.026-1.175-0.396c-0.323-0.788,0.023-2.331,1.405-6.995
		c1.382-4.663,1.967-6.27,2.849-7.354c0.419-0.513,0.941-0.927,1.617-1.094c1.588-0.396,1.409,1.184,1.017,2.507l2.07-0.516
		c0.45-1.595,0.469-2.85-0.049-3.593c-0.428-0.585-1.207-0.824-2.408-0.522c-1.373,0.343-2.458,1.147-3.353,2.138
		c-1.621,1.784-2.354,4.038-3.813,8.953c-1.454,4.916-2.043,7.13-1.306,8.327c0.405,0.668,1.148,1.018,2.521,0.676
		C196.249,312.001,198.478,309.886,199.445,306.627L199.445,306.627z M210.081,308.346l5.82-19.651l-2.07,0.516l-3.957,13.437
		l-0.422-12.347l-1.927,0.483l-5.82,19.651l2.071-0.517l3.983-13.446l0.446,12.339L210.081,308.346L210.081,308.346z"/>
	<path fill="#F7F1E7" d="M100.146,343.79c0-0.32-0.094-0.585-0.311-0.771c-0.171-0.143-0.4-0.233-0.77-0.278l-0.477-0.063
		c-0.162-0.021-0.292-0.076-0.374-0.144c-0.085-0.071-0.117-0.167-0.117-0.262c0-0.247,0.203-0.458,0.621-0.458
		c0.266,0,0.572,0.03,0.824,0.247l0.5-0.441c-0.346-0.302-0.747-0.423-1.301-0.423c-0.873,0-1.404,0.454-1.404,1.098
		c0,0.307,0.095,0.54,0.288,0.711c0.18,0.158,0.437,0.257,0.779,0.304l0.486,0.063c0.185,0.025,0.279,0.063,0.355,0.126
		c0.085,0.071,0.126,0.179,0.126,0.306c0,0.288-0.248,0.45-0.711,0.45c-0.374,0-0.72-0.078-0.972-0.307l-0.508,0.459
		c0.396,0.36,0.859,0.478,1.472,0.478C99.498,344.893,100.146,344.493,100.146,343.79L100.146,343.79z M102.523,344.861v-3.623
		h-0.788v3.623H102.523L102.523,344.861z M107.167,344.861v-3.623h-0.788v2.218l-1.593-2.218h-0.702v3.623h0.788v-2.224l1.594,2.224
		H107.167L107.167,344.861z M111.557,343.745h-0.797c-0.081,0.288-0.284,0.513-0.68,0.513c-0.216,0-0.392-0.072-0.504-0.189
		c-0.152-0.152-0.198-0.323-0.198-1.021c0-0.699,0.045-0.869,0.198-1.022c0.112-0.118,0.288-0.189,0.504-0.189
		c0.396,0,0.599,0.226,0.68,0.513h0.797c-0.14-0.759-0.729-1.147-1.481-1.147c-0.441,0-0.806,0.145-1.085,0.396
		c-0.405,0.365-0.396,0.819-0.396,1.445c0,0.625-0.008,1.079,0.396,1.445c0.284,0.256,0.644,0.396,1.085,0.396
		C110.823,344.893,111.413,344.506,111.557,343.745L111.557,343.745z M115.738,344.861v-0.63h-1.868v-0.883h1.589v-0.63h-1.589
		v-0.851h1.868v-0.63h-2.651v3.623H115.738L115.738,344.861z M121.185,344.861v-3.623h-0.734l-0.819,0.643v0.712l0.819-0.639v2.911
		h0.734V344.861z M125.483,342.326c0-0.72-0.545-1.12-1.256-1.12s-1.256,0.419-1.256,1.13c0,0.67,0.523,1.075,1.063,1.075
		c0.094,0,0.202-0.009,0.301-0.044l-0.836,1.494h0.796l0.855-1.566C125.331,342.962,125.483,342.656,125.483,342.326
		L125.483,342.326z M124.746,342.331c0,0.338-0.221,0.532-0.522,0.532c-0.311,0-0.522-0.207-0.522-0.532
		c0-0.337,0.221-0.53,0.522-0.53C124.525,341.801,124.746,341.994,124.746,342.331L124.746,342.331z M129.404,342.326
		c0-0.72-0.543-1.12-1.255-1.12c-0.711,0-1.256,0.419-1.256,1.13c0,0.67,0.522,1.075,1.063,1.075c0.095,0,0.202-0.009,0.301-0.044
		l-0.836,1.494h0.797l0.854-1.566C129.251,342.962,129.404,342.656,129.404,342.326L129.404,342.326z M128.667,342.331
		c0,0.338-0.221,0.532-0.523,0.532c-0.311,0-0.521-0.207-0.521-0.532c0-0.337,0.22-0.53,0.521-0.53
		C128.445,341.801,128.667,341.994,128.667,342.331L128.667,342.331z M133.32,342.326c0-0.72-0.545-1.12-1.255-1.12
		c-0.711,0-1.256,0.419-1.256,1.13c0,0.67,0.522,1.075,1.063,1.075c0.094,0,0.203-0.009,0.301-0.044l-0.837,1.494h0.797l0.855-1.566
		C133.167,342.962,133.32,342.656,133.32,342.326L133.32,342.326z M132.587,342.331c0,0.338-0.221,0.532-0.522,0.532
		c-0.311,0-0.522-0.207-0.522-0.532c0-0.337,0.22-0.53,0.522-0.53C132.366,341.801,132.587,341.994,132.587,342.331L132.587,342.331
		z"/>
	<path fill="#F7F1E7" d="M93.632,343.183l-0.468-0.418c-0.207,0.188-0.337,0.216-0.491,0.216c-0.162,0-0.292-0.045-0.458-0.122
		c-0.244-0.117-0.433-0.171-0.662-0.171c-0.347,0-0.576,0.121-0.928,0.437l0.464,0.419c0.211-0.19,0.333-0.216,0.486-0.216
		c0.162,0,0.302,0.045,0.464,0.12c0.243,0.118,0.432,0.172,0.661,0.172C93.042,343.619,93.282,343.498,93.632,343.183
		L93.632,343.183z"/>
	<path fill="#F7F1E7" d="M136.431,343.183l0.468-0.418c0.211,0.188,0.338,0.216,0.491,0.216c0.162,0,0.292-0.045,0.459-0.122
		c0.243-0.117,0.433-0.171,0.662-0.171c0.347,0,0.576,0.121,0.927,0.437l-0.463,0.419c-0.208-0.19-0.333-0.216-0.487-0.216
		c-0.162,0-0.301,0.045-0.464,0.12c-0.243,0.118-0.431,0.172-0.662,0.172C137.021,343.619,136.783,343.498,136.431,343.183
		L136.431,343.183z"/>
	<path fill="#F7F1E7" d="M92.628,258.895l-0.428-0.378c0.288-0.35,0.279-0.76,0.279-1.422c0-0.75,0.014-1.188-0.414-1.57
		c-0.302-0.27-0.685-0.418-1.148-0.418s-0.841,0.148-1.143,0.418c-0.428,0.383-0.423,0.82-0.423,1.57
		c0,0.752-0.004,1.189,0.423,1.572c0.297,0.27,0.68,0.418,1.143,0.418c0.342,0,0.662-0.09,0.909-0.248l0.432,0.392L92.628,258.895
		L92.628,258.895z M91.823,257.094c0,0.505-0.018,0.77-0.131,0.968l-0.423-0.378l-0.365,0.329l0.459,0.414
		c-0.13,0.082-0.279,0.126-0.445,0.126c-0.256,0-0.496-0.094-0.648-0.243c-0.212-0.207-0.257-0.427-0.257-1.216
		c0-0.787,0.041-1.003,0.257-1.214c0.152-0.149,0.392-0.243,0.648-0.243c0.257,0,0.495,0.094,0.648,0.243
		C91.778,256.086,91.823,256.307,91.823,257.094L91.823,257.094z M96.635,257.733v-2.592h-0.662v2.565
		c0,0.522-0.36,0.847-0.904,0.847c-0.545,0-0.896-0.324-0.896-0.847v-2.565h-0.662v2.592c0,0.811,0.671,1.355,1.558,1.355
		C95.959,259.084,96.635,258.539,96.635,257.733L96.635,257.733z M101.028,259.052l-1.593-3.915h-0.532l-1.593,3.915h0.703
		l0.301-0.787h1.716l0.297,0.787H101.028L101.028,259.052z M99.844,257.761h-1.337l0.68-1.738L99.844,257.761L99.844,257.761z
		 M104.521,259.052v-0.531h-2.093v-3.38h-0.661v3.917h2.754V259.052z M106.056,259.052v-3.915h-0.657v3.915H106.056L106.056,259.052
		z M109.986,255.667v-0.531h-3.056v0.531h1.197v3.38h0.662v-3.38H109.986L109.986,255.667z M113.582,255.137h-0.72l-0.909,1.719
		l-0.91-1.719h-0.72l1.3,2.305v1.61h0.662v-1.61L113.582,255.137L113.582,255.137z M118.849,257.883h-0.666
		c-0.104,0.396-0.405,0.67-0.887,0.67c-0.256,0-0.491-0.09-0.64-0.234c-0.211-0.207-0.26-0.432-0.26-1.219
		c0-0.789,0.049-1.014,0.26-1.22c0.153-0.149,0.383-0.235,0.64-0.235c0.481,0,0.774,0.275,0.882,0.672h0.67
		c-0.153-0.78-0.751-1.208-1.553-1.208c-0.45,0-0.842,0.149-1.144,0.419c-0.428,0.383-0.423,0.818-0.423,1.571
		c0,0.75-0.004,1.188,0.423,1.57c0.297,0.271,0.689,0.418,1.144,0.418C118.083,259.084,118.7,258.661,118.849,257.883
		L118.849,257.883z M123.021,259.052l-1.004-1.731c0.491-0.123,0.869-0.478,0.869-1.041c0-0.666-0.526-1.143-1.35-1.143h-1.688
		v3.915h0.661v-1.647h0.825l0.918,1.647H123.021L123.021,259.052z M122.225,256.284c0,0.388-0.302,0.613-0.739,0.613h-0.977v-1.225
		h0.977C121.928,255.667,122.225,255.901,122.225,256.284L122.225,256.284z M126.753,259.052v-0.531h-2.12v-1.174h1.81v-0.528h-1.81
		v-1.143h2.12v-0.532h-2.777v3.917h2.777V259.052z M130.979,259.052l-1.593-3.915h-0.531l-1.593,3.915h0.702l0.297-0.787h1.715
		l0.297,0.787H130.979L130.979,259.052z M129.796,257.761h-1.337l0.68-1.738L129.796,257.761L129.796,257.761z M134.022,255.667
		v-0.531h-3.056v0.531h1.197v3.38h0.662v-3.38H134.022L134.022,255.667z M135.557,259.052v-3.915h-0.661v3.915H135.557
		L135.557,259.052z M139.663,255.137h-0.698l-1.003,2.849l-1-2.849h-0.684l1.432,3.915h0.513L139.663,255.137L139.663,255.137z
		 M143.16,259.052v-0.531h-2.12v-1.174h1.809v-0.528h-1.809v-1.143h2.12v-0.532h-2.777v3.917h2.777V259.052z"/>
</g>
</svg>
