<?xml version="1.0" encoding="utf-8"?>
<!-- Generator: Adobe Illustrator 15.0.0, SVG Export Plug-In . SVG Version: 6.00 Build 0)  -->
<!DOCTYPE svg PUBLIC "-//W3C//DTD SVG 1.1//EN" "http://www.w3.org/Graphics/SVG/1.1/DTD/svg11.dtd">
<svg version="1.1" id="Layer_1" xmlns="http://www.w3.org/2000/svg" xmlns:xlink="http://www.w3.org/1999/xlink" x="0px" y="0px"
	 width="218.799px" height="152px" viewBox="0 0 218.799 152" enable-background="new 0 0 218.799 152" xml:space="preserve">
<path id="Path_166" fill="#F7F1E7" d="M22.764,58.408l-7.968-5.626l7.968-5.626c0,0,0.515-0.272,0.28-0.677
	c-0.235-0.405-0.728-0.098-0.728-0.098l-8.86,4.084l-0.888-9.715c0,0,0.021-0.582-0.447-0.582s-0.448,0.582-0.448,0.582
	l-0.893,9.714l-8.857-4.089c0,0-0.493-0.309-0.728,0.096s0.279,0.678,0.279,0.678l7.967,5.632l-7.967,5.632
	c0,0-0.515,0.271-0.279,0.678c0.235,0.406,0.728,0.096,0.728,0.096l8.857-4.088l0.893,9.715c0,0-0.021,0.581,0.448,0.581
	s0.447-0.581,0.447-0.581l0.888-9.717l8.861,4.083c0,0,0.493,0.309,0.728-0.098C23.28,58.679,22.764,58.408,22.764,58.408z"/>
<g id="Group_129" transform="translate(22.354 7.125)">
	<path id="Path_167" fill="#F7F1E7" d="M184.703,93.333c5.064,0.103,9.445-3.507,10.313-8.497h-1.487
		c-0.036,0.188-0.082,0.463-0.133,0.652c-0.629,2.236-3.06,5.004-5.843,5.247c-0.134,0.017-0.27,0.031-0.4,0.035
		c-0.479,0.021-0.961-0.02-1.43-0.123c-0.301-0.077-0.593-0.182-0.875-0.312c-0.771-0.341-1.266-1.106-1.259-1.948
		c-0.027-0.479-0.021-0.725-0.021-1.411V62.128h9.638v-1.372h-9.638v-1.261l0,0l0,0l0,0v-6.917h-1.132
		c-1.222,4.868-5.573,8.3-10.591,8.353v1.198h5.734l-0.01,25.038c-0.178,2.193,1.018,4.27,3.005,5.217
		c0.37,0.204,0.76,0.374,1.16,0.507c0.497,0.157,1.009,0.267,1.526,0.327c0.44,0.064,1.435,0.115,1.435,0.115L184.703,93.333z"/>
	<path id="Path_168" fill="#F7F1E7" d="M170.454,83.835c0.007-0.411-0.015-0.822-0.065-1.231c-0.048-0.399-0.125-0.795-0.232-1.184
		c-0.105-0.381-0.238-0.754-0.399-1.114c-0.161-0.358-0.348-0.705-0.559-1.036c-0.212-0.329-0.446-0.646-0.7-0.943
		c-0.5-0.603-1.087-1.13-1.738-1.565c-0.335-0.226-0.68-0.435-1.031-0.64c-0.35-0.204-0.717-0.399-1.082-0.584
		c-0.366-0.185-0.74-0.369-1.117-0.551c-0.378-0.184-0.748-0.35-1.126-0.517c-0.379-0.168-0.763-0.334-1.147-0.493
		c-0.385-0.158-0.769-0.32-1.154-0.478c-0.385-0.156-0.772-0.31-1.161-0.46c-0.388-0.15-0.782-0.301-1.175-0.451
		c-0.392-0.15-0.763-0.296-1.134-0.461c-0.367-0.162-0.726-0.345-1.072-0.546c-0.341-0.196-0.671-0.415-0.984-0.655
		c-0.306-0.234-0.588-0.497-0.848-0.782c-0.256-0.278-0.479-0.587-0.664-0.917c-0.19-0.335-0.335-0.693-0.432-1.064
		c-0.102-0.385-0.148-0.783-0.141-1.18c0.007-0.399,0.064-0.795,0.173-1.177c0.104-0.369,0.257-0.722,0.457-1.049
		c0.199-0.319,0.433-0.614,0.697-0.881c0.269-0.273,0.563-0.521,0.877-0.739c0.317-0.22,0.655-0.406,1.012-0.558
		c0.364-0.156,0.743-0.275,1.132-0.357c0.401-0.084,0.809-0.135,1.218-0.15c0.824-0.037,1.647,0.046,2.446,0.247
		c0.389,0.097,0.77,0.225,1.138,0.382c0.361,0.156,0.711,0.34,1.045,0.55c0.334,0.207,0.649,0.438,0.949,0.69
		c0.597,0.5,1.122,1.08,1.562,1.725c0.219,0.326,0.418,0.665,0.594,1.018c0.178,0.352,0.327,0.719,0.445,1.097
		c0.122,0.384,0.203,0.776,0.291,1.168c0.089,0.392,0.177,0.806,0.255,1.213l0.011,0.06h1.072v-9.912h-0.687l-0.032,0.067
		l-0.036,0.071c-0.025,0.045-0.051,0.092-0.078,0.136c-0.054,0.09-0.113,0.177-0.178,0.26c-0.259,0.333-0.592,0.601-0.975,0.782
		c-0.426,0.188-0.889,0.279-1.354,0.266c-0.469-0.002-0.936-0.067-1.388-0.191c-0.469-0.124-0.933-0.262-1.402-0.383
		c-0.469-0.121-0.942-0.224-1.419-0.313c-0.473-0.092-0.95-0.155-1.43-0.186c-0.488-0.025-0.979-0.018-1.465,0.024
		c-0.48,0.037-0.959,0.101-1.431,0.192c-0.468,0.091-0.928,0.215-1.378,0.369c-0.44,0.15-0.871,0.333-1.284,0.545
		c-0.41,0.213-0.804,0.456-1.177,0.73c-0.369,0.27-0.719,0.565-1.045,0.885c-0.331,0.321-0.641,0.664-0.926,1.027
		c-0.278,0.353-0.521,0.731-0.729,1.129c-0.211,0.409-0.386,0.835-0.521,1.275c-0.14,0.451-0.245,0.913-0.315,1.381
		c-0.074,0.474-0.115,0.952-0.123,1.431s0.024,0.961,0.096,1.438c0.071,0.458,0.186,0.91,0.341,1.348
		c0.152,0.432,0.344,0.848,0.571,1.245c0.227,0.392,0.485,0.765,0.774,1.114c0.29,0.352,0.605,0.68,0.944,0.985
		c0.34,0.312,0.698,0.603,1.075,0.871c0.38,0.274,0.774,0.527,1.181,0.765c0.404,0.237,0.825,0.457,1.251,0.664
		c0.427,0.207,0.875,0.404,1.32,0.584c0.443,0.182,0.902,0.348,1.354,0.511c0.452,0.162,0.92,0.33,1.378,0.492
		c0.457,0.163,0.921,0.336,1.378,0.508c0.46,0.171,0.908,0.338,1.355,0.52c0.43,0.161,0.845,0.361,1.24,0.593
		c0.39,0.243,0.76,0.515,1.109,0.814c0.344,0.285,0.658,0.603,0.94,0.95c0.272,0.346,0.501,0.723,0.681,1.125
		c0.185,0.419,0.322,0.86,0.406,1.312c0.101,0.463,0.14,0.938,0.115,1.411c-0.037,0.464-0.132,0.922-0.283,1.362
		c-0.139,0.422-0.33,0.825-0.57,1.199c-0.239,0.365-0.527,0.696-0.855,0.985c-0.333,0.292-0.701,0.543-1.093,0.748
		c-0.407,0.211-0.834,0.376-1.276,0.493c-0.464,0.119-0.939,0.193-1.418,0.221c-0.483,0.031-0.971,0.031-1.455,0
		c-0.483-0.031-0.962-0.091-1.438-0.179c-0.466-0.088-0.924-0.207-1.374-0.357c-0.444-0.149-0.878-0.331-1.295-0.544
		c-0.41-0.207-0.805-0.443-1.179-0.709c-0.374-0.263-0.729-0.551-1.065-0.862c-0.336-0.315-0.65-0.649-0.944-1.003
		c-0.291-0.348-0.553-0.719-0.781-1.108c-0.229-0.4-0.429-0.817-0.596-1.248c-0.169-0.438-0.313-0.887-0.43-1.342
		c-0.123-0.464-0.216-0.929-0.291-1.401c-0.017-0.115-0.031-0.229-0.044-0.343l-0.01-0.053c-0.053-0.531-0.066-0.9-0.066-0.9h-1.19
		v11.353h1.221c0.04-0.343,0.114-0.681,0.22-1.009l0.033-0.082c0.042-0.103,0.09-0.201,0.146-0.296
		c0.18-0.344,0.464-0.622,0.813-0.794c0.407-0.155,0.855-0.166,1.271-0.031c0.442,0.134,0.873,0.306,1.284,0.514
		c0.437,0.207,0.876,0.401,1.32,0.581c0.446,0.181,0.894,0.34,1.355,0.483c0.462,0.145,0.924,0.275,1.396,0.379
		c0.47,0.103,0.946,0.174,1.428,0.215c0.488,0.035,0.979,0.035,1.467,0c0.481-0.031,0.962-0.089,1.438-0.173
		c0.474-0.085,0.94-0.199,1.4-0.341c0.449-0.137,0.89-0.302,1.32-0.492c0.428-0.189,0.844-0.404,1.246-0.646
		c0.399-0.236,0.781-0.498,1.147-0.781c0.365-0.288,0.717-0.593,1.049-0.918c0.329-0.316,0.637-0.653,0.921-1.012
		c0.275-0.355,0.518-0.737,0.722-1.139c0.206-0.405,0.37-0.831,0.492-1.269c0.128-0.456,0.23-0.919,0.303-1.387
		c0.067-0.437,0.104-0.877,0.11-1.319L170.454,83.835z"/>
	<path id="Path_169" fill="#F7F1E7" d="M59.52,93.357h-0.315c-4.359,0.101-8.547-1.68-11.499-4.887
		c-0.954-1-1.793-2.103-2.502-3.289c-1.45-2.403-2.18-5.173-2.103-7.979c0-0.047,0-0.092,0-0.139v-0.069v-0.089
		c-0.076-2.79,0.645-5.543,2.078-7.938c0.715-1.199,1.563-2.315,2.528-3.326c2.951-3.207,7.139-4.988,11.498-4.888h0.313
		c4.357-0.101,8.546,1.679,11.498,4.885c0.955,1,1.794,2.104,2.504,3.291c1.45,2.402,2.18,5.172,2.104,7.979c0,0.047,0,0.092,0,0.14
		v0.068v0.09c0.076,2.79-0.644,5.543-2.077,7.939c-0.716,1.198-1.563,2.314-2.531,3.324c-2.951,3.207-7.14,4.987-11.498,4.886
		 M59.369,92.257L59.369,92.257c0.257,0,0.505-0.025,0.751-0.05c2.469-0.384,4.625-1.883,5.844-4.063
		c0.866-1.388,1.508-2.902,1.904-4.488c0.025-0.099,0.05-0.197,0.073-0.3c0.016-0.061,0.027-0.124,0.043-0.186
		c0.201-0.922,0.347-1.855,0.435-2.795v-0.043c0.019-0.211,0.037-0.429,0.053-0.647c0.054-0.775,0.083-1.601,0.083-2.479
		c0.12-3.131-0.39-6.253-1.504-9.18c-0.308-0.709-0.667-1.396-1.077-2.053c-1.213-2.172-3.355-3.669-5.812-4.064
		c-0.269-0.031-0.541-0.049-0.812-0.053h-0.01c-0.257,0-0.505,0.025-0.751,0.048c-2.471,0.384-4.625,1.882-5.845,4.064
		c-0.864,1.388-1.507,2.902-1.903,4.489c-0.025,0.099-0.05,0.198-0.073,0.299c-0.016,0.061-0.028,0.124-0.042,0.186
		c-0.202,0.921-0.346,1.855-0.436,2.795v0.045c-0.021,0.21-0.036,0.426-0.053,0.646c-0.053,0.774-0.082,1.601-0.082,2.479
		c-0.121,3.131,0.39,6.253,1.503,9.182c0.308,0.71,0.669,1.396,1.077,2.053c1.215,2.173,3.355,3.67,5.813,4.064
		c0.265,0.026,0.533,0.052,0.811,0.052l0,0"/>
	<path id="Path_170" fill="#F7F1E7" d="M42.148,92.766v-0.782l-3.559-0.369v-0.01c-0.596-0.028-1.083-0.484-1.152-1.077v-16.36
		c0.036-1.733-0.019-3.466-0.164-5.193c-0.085-1.721-0.647-3.384-1.626-4.802c-1.755-2.272-4.697-3.408-8.827-3.408
		c-3.751-0.092-7.277,1.79-9.291,4.958V41.814h-0.879c-2.125,2.09-4.982,3.271-7.964,3.287H8.663H6.31v1.109h3.859
		c0.594,0.034,1.078,0.487,1.152,1.078v43.079v0.01c-0.002,0.622-0.468,1.145-1.086,1.218l-3.924,0.382v0.781h16.39v-0.781
		l-3.784-0.371h-0.006c-0.595-0.029-1.081-0.484-1.151-1.075l-0.008-18.882c0-2.473,0.258-4.07,0.774-4.792
		c1.548-2.216,3.562-3.695,6.035-3.695c2.993,0,4.928,1.185,5.807,3.552c0.413,1.133,0.606,4.474,0.606,9.158v14.513
		c-0.001,0.622-0.468,1.146-1.086,1.219l-4.261,0.381v0.782L42.148,92.766z"/>
	<path id="Path_171" fill="#F7F1E7" d="M137.423,73.841h-16.379v-0.055v-0.044c0.078-0.938,0.21-1.871,0.393-2.795
		c0.012-0.062,0.023-0.124,0.037-0.186c0.021-0.101,0.045-0.199,0.066-0.299c0.354-1.572,0.936-3.084,1.725-4.489
		c1.014-2.117,2.973-3.625,5.279-4.064c0.226-0.027,0.452-0.044,0.68-0.048h0.01c0.246,0.003,0.494,0.021,0.739,0.053
		c2.294,0.449,4.241,1.956,5.251,4.064c0.371,0.662,0.695,1.347,0.972,2.053c0.677,1.871,1.093,3.828,1.232,5.813L137.423,73.841z
		 M137.527,75.428h5.034c0.412,0,0.825-0.016,1.231,0h0.087c-0.015-0.374-0.051-0.747-0.108-1.117
		c-0.049-0.367-0.108-0.731-0.181-1.095c-0.145-0.729-0.342-1.447-0.593-2.147c-0.259-0.71-0.567-1.402-0.928-2.067
		c-0.358-0.669-0.758-1.316-1.194-1.938c-0.441-0.625-0.92-1.223-1.431-1.792c-0.507-0.564-1.056-1.088-1.642-1.569
		c-0.575-0.474-1.189-0.897-1.837-1.268c-0.646-0.369-1.324-0.68-2.026-0.927c-0.695-0.244-1.412-0.428-2.139-0.551
		c-0.729-0.122-1.465-0.187-2.204-0.196c-0.744-0.017-1.49,0.016-2.231,0.098c-0.735,0.085-1.465,0.232-2.175,0.44
		c-0.717,0.209-1.414,0.483-2.082,0.818c-0.679,0.34-1.327,0.741-1.936,1.197c-0.609,0.457-1.182,0.96-1.711,1.506
		c-1.047,1.085-1.961,2.29-2.724,3.59c-0.377,0.644-0.712,1.311-1.001,1.998c-0.285,0.687-0.518,1.394-0.694,2.115
		c-0.177,0.719-0.305,1.449-0.382,2.186c-0.147,1.481-0.153,2.974-0.018,4.457c0.074,0.738,0.192,1.478,0.334,2.206
		c0.155,0.728,0.351,1.446,0.585,2.153c0.235,0.728,0.526,1.438,0.871,2.12c0.335,0.682,0.729,1.331,1.174,1.944
		c0.896,1.236,1.986,2.317,3.23,3.202c0.569,0.398,1.176,0.746,1.806,1.039c0.634,0.325,1.293,0.596,1.972,0.811
		c0.706,0.215,1.429,0.372,2.16,0.471c0.775,0.118,1.556,0.188,2.339,0.213c0.729,0.007,1.459,0.011,2.185-0.052
		c0.735-0.063,1.467-0.181,2.185-0.353c0.727-0.176,1.438-0.41,2.127-0.702c0.696-0.295,1.367-0.647,2.005-1.054
		c1.918-1.228,3.499-2.916,4.6-4.912c0.36-0.654,0.663-1.34,0.906-2.047c0.112-0.334,0.213-0.672,0.296-1.016
		c0.042-0.17,0.08-0.342,0.115-0.514c0.043-0.174,0.073-0.351,0.089-0.529c-0.116-0.012-0.248,0-0.363,0h-0.369h-0.764
		c-0.135,0-0.275-0.008-0.411,0c-0.044,0.14-0.061,0.293-0.094,0.437c-0.034,0.142-0.068,0.281-0.107,0.421
		c-0.082,0.284-0.172,0.564-0.268,0.841c-0.205,0.559-0.453,1.102-0.739,1.623c-0.288,0.529-0.615,1.037-0.977,1.52
		c-0.368,0.489-0.77,0.95-1.206,1.379c-0.438,0.435-0.911,0.834-1.413,1.194c-0.5,0.36-1.027,0.679-1.579,0.954
		c-0.549,0.266-1.115,0.492-1.694,0.677c-0.559,0.168-1.133,0.271-1.716,0.311c-0.579,0.04-1.16,0.035-1.738-0.012
		c-0.595-0.04-1.184-0.127-1.764-0.257c-0.552-0.133-1.09-0.324-1.601-0.572c-0.533-0.254-1.037-0.563-1.502-0.926
		c-0.478-0.374-0.915-0.795-1.308-1.256c-0.398-0.473-0.754-0.978-1.064-1.512c-0.306-0.525-0.572-1.072-0.799-1.638
		c-0.226-0.563-0.418-1.139-0.577-1.724c-0.152-0.591-0.267-1.189-0.343-1.793c-0.083-0.603-0.147-1.21-0.193-1.816
		s-0.077-1.221-0.092-1.83c-0.017-0.611-0.021-1.231-0.013-1.848c-0.009-0.298,0.001-0.598,0.025-0.895c0.257-0.023,0.529,0,0.789,0
		h15.781L137.527,75.428z"/>
	<path id="Path_172" fill="#F7F1E7" d="M113.121,92.767v-0.782l-3.559-0.369l-0.008-0.01c-0.597-0.028-1.082-0.484-1.15-1.077
		v-16.36c0.035-1.732-0.019-3.466-0.164-5.193c-0.085-1.721-0.648-3.383-1.627-4.802c-1.756-2.272-4.698-3.409-8.827-3.409
		c-3.751-0.09-7.278,1.791-9.291,4.958v-1.585l0,0v-3.344h-0.879c-2.125,2.09-4.983,3.27-7.965,3.287h-0.024h-2.34v1.109h3.861
		c0.594,0.03,1.081,0.486,1.152,1.078v0.807v23.3v0.01c-0.002,0.622-0.469,1.146-1.087,1.219l-3.923,0.381v0.782h16.389v-0.782
		l-3.785-0.369l0,0c-0.594-0.03-1.081-0.484-1.151-1.076l-0.008-18.882c0-2.474,0.257-4.07,0.774-4.792
		c1.548-2.217,3.561-3.695,6.035-3.695c2.992,0,4.928,1.185,5.806,3.553c0.412,1.133,0.606,4.473,0.606,9.158v14.507
		c-0.002,0.621-0.469,1.145-1.087,1.218l-4.261,0.382v0.781L113.121,92.767z"/>
</g>
</svg>
