<svg width="300" height="124" viewBox="0 0 300 124" fill="none" xmlns="http://www.w3.org/2000/svg">
<path fill-rule="evenodd" clip-rule="evenodd" d="M55.2497 52.6812C54.6323 52.5679 53.9986 52.4995 53.3488 52.4995C53.1565 52.4995 52.9695 52.5184 52.7799 52.5292C52.4554 51.772 52.0618 51.0525 51.6186 50.3689C52.1858 50.2906 52.7601 50.2367 53.3488 50.2367C53.6373 50.2367 53.9204 50.261 54.2035 50.2808C54.617 51.0443 54.9576 51.852 55.2497 52.6812ZM48.7768 53.5634C48.4335 52.88 48.0246 52.236 47.5465 51.6478C48.2358 51.2944 48.9575 50.9976 49.7116 50.7718C50.1736 51.4059 50.5753 52.0822 50.915 52.7963C50.1682 52.9753 49.4536 53.2343 48.7768 53.5634ZM44.1731 48.9196C44.9074 48.4394 45.6812 48.0176 46.4882 47.6551C47.2046 48.1354 47.8688 48.6867 48.4719 49.2973C47.6954 49.5753 46.9467 49.9089 46.2375 50.3082C45.6093 49.7677 44.9173 49.3018 44.1731 48.9196ZM51.2371 46.3229C51.8977 46.9786 52.4936 47.6971 53.0391 48.4536C52.1359 48.4733 51.2488 48.5642 50.3923 48.7413C49.8117 48.0722 49.1753 47.4543 48.4842 46.8994C49.3721 46.6296 50.2934 46.4426 51.2371 46.3229ZM53.348 44.3766C52.842 44.3766 52.3459 44.4126 51.8497 44.453C48.5494 41.4717 44.194 39.6396 39.408 39.6396C29.1477 39.6396 20.8008 47.992 20.8008 58.2592V75.5072H22.5983V58.2592C22.5983 48.9841 30.1399 41.4384 39.408 41.4384C43.1721 41.4384 46.6396 42.6975 49.4446 44.7966C48.4794 45.0035 47.5473 45.2967 46.644 45.6465C44.5103 44.4162 42.0441 43.7012 39.408 43.7012C31.3865 43.7012 24.8596 50.2314 24.8596 58.2592V75.5072H26.6572V58.2592C26.6572 51.2235 32.3769 45.4999 39.408 45.4999C41.2407 45.4999 42.9789 45.8956 44.5544 46.5944C43.7158 47.0459 42.9276 47.5739 42.1727 48.1449C41.2901 47.903 40.3661 47.7627 39.408 47.7627C33.6245 47.7627 28.9185 52.4718 28.9185 58.2592V75.5072H30.716V58.2592C30.716 53.4629 34.6149 49.5614 39.408 49.5614C39.754 49.5614 40.0929 49.5875 40.4272 49.6262C36.9274 53.0141 34.7407 57.751 34.7407 62.9971V75.5072H36.5383V62.9971C36.5383 57.8473 38.8679 53.2363 42.5223 50.1478C43.2953 50.4464 44.0134 50.8511 44.6614 51.3458C41.1121 54.0025 38.7996 58.2286 38.7996 62.9971V75.5072H40.5971V62.9971C40.5971 58.7035 42.7326 54.9082 45.9907 52.5941C46.4822 53.1652 46.8975 53.8019 47.2301 54.4882C44.5876 56.3957 42.8584 59.4949 42.8584 62.9971V75.5072H44.656V62.9971C44.656 60.2819 45.9062 57.8545 47.8601 56.259C48.012 56.902 48.101 57.5703 48.101 58.2592V75.5072H49.8985V58.2592C49.8985 57.2069 49.7395 56.1925 49.45 55.2328C50.1196 54.8946 50.8342 54.6339 51.5882 54.4782C51.9594 55.6735 52.1598 56.9435 52.1598 58.2592V75.5072H53.9574V58.2592C53.9574 56.8858 53.7533 55.562 53.3965 54.3011C54.2396 54.3056 55.053 54.4333 55.8232 54.6626C56.0766 55.8228 56.2196 57.0244 56.2196 58.2592V75.5072H58.0171V58.2592C58.0171 57.332 57.9263 56.4281 57.7951 55.5368C60.3323 57.0568 62.0409 59.8277 62.0409 62.9971V75.5072H63.8384V62.9971C63.8384 58.6163 61.1413 54.8587 57.3233 53.2875C57.0662 52.3638 56.7444 51.4708 56.3553 50.6101C61.9375 51.969 66.0997 56.9992 66.0997 62.9971V75.5072H67.8973V62.9971C67.8973 55.6241 62.3878 49.53 55.275 48.5811C54.7591 47.7375 54.1865 46.9344 53.5475 46.1852C62.724 46.294 70.1586 53.7885 70.1586 62.9971V75.5072H71.9562V62.9971C71.9562 52.7299 63.6093 44.3766 53.348 44.3766Z" fill="#F7F1E7"/>
<path fill-rule="evenodd" clip-rule="evenodd" d="M85.0742 75.119V73.9001C86.4738 73.8143 87.4787 73.2863 88.0889 72.3173C88.6969 71.3471 89.0863 69.5926 89.2538 67.0548L90.3248 51.0751C90.3397 50.9328 90.3494 50.7872 90.3568 50.6373C90.3632 50.4863 90.3675 50.2625 90.3675 49.9626C90.3675 48.6221 90.1435 47.653 89.6955 47.0533C89.2474 46.4547 88.5113 46.1407 87.4893 46.1125V44.8936H100.05L103.79 58.6048L107.76 44.8936H120.363V46.1125C119.129 46.2266 118.297 46.4971 117.863 46.9251C117.429 47.3531 117.212 48.1375 117.212 49.2782C117.212 49.778 117.219 50.2516 117.233 50.7003C117.247 51.1501 117.268 51.5672 117.295 51.9529L118.325 68.3161C118.492 70.742 118.836 72.2488 119.354 72.8409C119.872 73.433 120.839 73.785 122.253 73.9001V75.119H105.764V73.9001C107.024 73.7284 107.872 73.4438 108.305 73.0441C108.739 72.6454 108.957 71.9816 108.957 71.0548C108.957 70.755 108.949 70.3987 108.935 69.9848C108.922 69.5719 108.901 69.1222 108.872 68.6377L108.012 50.9469L100.534 75.8675L91.9217 51.4173L90.8507 67.1396C90.8358 67.297 90.8113 67.6251 90.7771 68.1249C90.7419 68.6235 90.7249 69.0157 90.7249 69.3014C90.7249 70.9126 90.9905 72.0739 91.5228 72.7876C92.0541 73.5014 92.916 73.8719 94.1065 73.9001V75.119H85.0742Z" fill="#F7F1E7"/>
<path fill-rule="evenodd" clip-rule="evenodd" d="M134.834 62.4909C133.572 63.0047 132.614 63.8141 131.956 64.9178C131.298 66.0238 130.968 67.3752 130.968 68.9722C130.968 69.8859 131.147 70.6127 131.504 71.1548C131.861 71.6969 132.327 71.9674 132.9 71.9674C133.643 71.9674 134.151 71.6676 134.424 71.069C134.697 70.4703 134.834 68.9722 134.834 66.5768V62.4909ZM135.234 72.3519C134.169 73.5926 133.052 74.516 131.883 75.1222C130.713 75.7284 129.478 76.0315 128.175 76.0315C126.454 76.0315 125.056 75.5361 123.986 74.5453C122.914 73.5545 122.379 72.2813 122.379 70.7267C122.379 68.8874 123.194 67.2861 124.825 65.9237C126.456 64.5625 129.793 62.8895 134.835 60.9079V59.3891C134.835 57.7921 134.635 56.6471 134.235 55.955C133.836 55.2641 133.182 54.9175 132.272 54.9175C131.529 54.9175 130.913 55.1424 130.424 55.591C129.933 56.0408 129.689 56.6003 129.689 57.2706C129.689 57.627 129.701 58.0442 129.73 58.5233C129.758 59.0002 129.771 59.3033 129.771 59.4325C129.771 60.4733 129.489 61.3109 128.921 61.9454C128.354 62.5799 127.602 62.8971 126.663 62.8971C125.81 62.8971 125.123 62.6222 124.605 62.0735C124.087 61.5238 123.827 60.8003 123.827 59.9018C123.827 57.9627 124.731 56.3559 126.537 55.0783C128.344 53.8029 130.667 53.1641 133.511 53.1641C135.107 53.1641 136.553 53.3705 137.848 53.7845C139.144 54.1983 140.205 54.7969 141.031 55.5813C141.702 56.2223 142.179 56.9719 142.458 57.8269C142.739 58.683 142.88 59.9747 142.88 61.6988V67.7956C142.88 69.4925 143.009 70.6984 143.268 71.4111C143.526 72.1237 143.943 72.4801 144.517 72.4801C144.643 72.4801 144.769 72.4518 144.896 72.3943C145.022 72.3378 145.154 72.2519 145.295 72.1378V73.5284C144.734 74.2552 144.009 74.8202 143.121 75.2189C142.231 75.6176 141.247 75.8175 140.169 75.8175C138.937 75.8175 137.904 75.5252 137.071 74.9407C136.238 74.3563 135.625 73.4937 135.234 72.3519Z" fill="#F7F1E7"/>
<path fill-rule="evenodd" clip-rule="evenodd" d="M156.558 70.7765C156.558 71.8748 156.751 72.6624 157.136 73.1404C157.521 73.6173 158.161 73.8716 159.057 73.8998V75.1188H145.761V73.8998H145.888C146.812 73.8998 147.473 73.6608 147.872 73.1829C148.271 72.7048 148.471 71.9031 148.471 70.7765V62.7122C148.471 62.0267 148.388 61.5204 148.219 61.1935C148.052 60.8654 147.736 60.5437 147.274 60.2309L144.648 58.3482C146.384 57.7061 148.181 56.9435 150.036 56.0591C151.891 55.1759 153.821 54.1547 155.823 53.001V56.6361C156.664 55.4964 157.644 54.6392 158.764 54.07C159.884 53.4996 161.144 53.2139 162.545 53.2139C164.842 53.2139 166.554 53.8104 167.68 55.0011C168.808 56.1906 169.371 58.006 169.371 60.4438V70.7765C169.371 71.9031 169.57 72.7048 169.971 73.1829C170.37 73.6608 171.031 73.8998 171.954 73.8998H172.081V75.1188H161.285V60.659C161.285 59.1184 161.099 58.0484 160.728 57.4486C160.357 56.8511 159.731 56.5513 158.848 56.5513C158.021 56.5513 157.433 56.8609 157.084 57.4823C156.733 58.1016 156.558 59.1608 156.558 60.659V70.7765Z" fill="#F7F1E7"/>
<path fill-rule="evenodd" clip-rule="evenodd" d="M184.194 66.626C185.272 66.626 186.049 66.1698 186.526 65.2572C187.001 64.3446 187.239 62.84 187.239 60.7444C187.239 58.5911 187.001 57.0397 186.526 56.0913C186.049 55.1429 185.272 54.6681 184.194 54.6681C183.101 54.6681 182.318 55.1255 181.84 56.038C181.364 56.9507 181.127 58.5042 181.127 60.7009C181.127 62.8117 181.369 64.3272 181.852 65.2463C182.334 66.1665 183.116 66.626 184.194 66.626ZM177.095 77.9206C177.039 78.064 176.995 78.1987 176.969 78.3279C176.94 78.4561 176.926 78.5844 176.926 78.7125C176.926 79.7685 177.563 80.681 178.837 81.4513C180.111 82.2205 181.709 82.6061 183.626 82.6061C185.489 82.6061 186.98 82.2737 188.102 81.611C189.221 80.9483 189.782 80.0825 189.782 79.0124C189.782 78.3562 189.547 77.8293 189.078 77.4295C188.608 77.0297 187.982 76.8309 187.198 76.8309C186.707 76.8309 185.592 77.0797 183.847 77.5794C182.104 78.078 180.609 78.3279 179.363 78.3279C179.013 78.3279 178.641 78.2921 178.25 78.2215C177.858 78.1487 177.473 78.0499 177.095 77.9206ZM177.22 66.4339C176.241 65.7918 175.494 64.9977 174.984 64.0493C174.471 63.1009 174.217 62.0557 174.217 60.915C174.217 58.6195 175.176 56.7477 177.095 55.2995C179.013 53.8524 181.52 53.1289 184.614 53.1289C184.992 53.1289 185.38 53.1507 185.78 53.193C186.179 53.2354 186.596 53.2995 187.03 53.3853C187.492 52.1598 188.192 51.1962 189.13 50.4966C190.067 49.7991 191.132 49.4482 192.323 49.4482C193.191 49.4482 193.909 49.7057 194.475 50.2185C195.043 50.7323 195.326 51.382 195.326 52.1652C195.326 52.8366 195.109 53.3961 194.676 53.8448C194.24 54.2935 193.702 54.5184 193.058 54.5184C192.498 54.5184 191.811 54.2805 191 53.8024C190.187 53.3245 189.62 53.0854 189.298 53.0854C189.088 53.0854 188.906 53.1322 188.752 53.2245C188.597 53.3179 188.464 53.457 188.352 53.6417C190.244 54.2979 191.685 55.2365 192.68 56.4554C193.674 57.6743 194.171 59.104 194.171 60.7445C194.171 62.9825 193.219 64.8011 191.314 66.1982C189.411 67.5974 186.903 68.2949 183.795 68.2949C182.954 68.2949 182.118 68.2167 181.285 68.0591C180.452 67.9027 179.616 67.6746 178.775 67.3747C178.103 67.4899 177.574 67.7256 177.188 68.0809C176.804 68.4383 176.611 68.8587 176.611 69.3432C176.611 69.9136 176.825 70.3775 177.251 70.7338C177.679 71.0902 178.242 71.2683 178.942 71.2683C179.601 71.2683 180.771 70.9337 182.451 70.2634L182.682 70.1776C184.054 69.6366 185.167 69.265 186.021 69.0651C186.876 68.8663 187.701 68.7664 188.5 68.7664C190.6 68.7664 192.305 69.4041 193.615 70.6795C194.924 71.956 195.579 73.6149 195.579 75.6541C195.579 78.2777 194.486 80.3842 192.302 81.9746C190.117 83.5652 187.183 84.3593 183.501 84.3593C180.49 84.3593 178.131 83.9399 176.421 83.098C174.714 82.2561 173.86 81.1013 173.86 79.6324C173.86 79.0762 173.971 78.5765 174.195 78.1354C174.42 77.6933 174.77 77.2869 175.246 76.9165C174.49 76.3874 173.911 75.7247 173.512 74.9273C173.113 74.1277 172.914 73.2293 172.914 72.2308C172.914 70.8479 173.279 69.668 174.006 68.6903C174.734 67.7137 175.806 66.9619 177.22 66.4339Z" fill="#F7F1E7"/>
<path fill-rule="evenodd" clip-rule="evenodd" d="M206.714 56.7653C207.414 55.567 208.173 54.6686 208.993 54.0711C209.812 53.4713 210.691 53.1715 211.628 53.1715C212.666 53.1715 213.499 53.4855 214.129 54.1135C214.759 54.7414 215.073 55.567 215.073 56.5947C215.073 57.4932 214.811 58.2134 214.286 58.7545C213.761 59.2966 213.065 59.5682 212.196 59.5682C211.412 59.5682 210.659 59.2466 209.938 58.6045C209.217 57.9636 208.759 57.6431 208.562 57.6431C208.1 57.6431 207.771 57.9571 207.575 58.5839C207.378 59.2118 207.28 60.3308 207.28 61.9431V70.7765C207.28 71.8889 207.501 72.6874 207.943 73.173C208.384 73.6575 209.109 73.8998 210.116 73.8998H210.243V75.1199H196.484V73.8998H196.611C197.535 73.8998 198.197 73.6619 198.596 73.1828C198.995 72.7059 199.195 71.9042 199.195 70.7765V62.7132C199.195 62.0278 199.11 61.5215 198.942 61.1934C198.774 60.8653 198.46 60.5448 197.996 60.2309L195.371 58.3482C196.743 57.8636 198.326 57.1966 200.118 56.3481C201.91 55.4996 204.109 54.385 206.714 53.001V56.7653Z" fill="#F7F1E7"/>
<path fill-rule="evenodd" clip-rule="evenodd" d="M226.901 74.4141C228.19 74.4141 229.079 73.7938 229.57 72.552C230.059 71.3124 230.305 68.6595 230.305 64.5953C230.305 60.5593 230.059 57.9238 229.57 56.6918C229.079 55.4577 228.19 54.8406 226.901 54.8406C225.627 54.8406 224.748 55.4316 224.266 56.6158C223.782 57.7999 223.541 60.4594 223.541 64.5953C223.541 68.7594 223.782 71.4374 224.266 72.6269C224.748 73.8188 225.627 74.4141 226.901 74.4141ZM226.904 76.0389C223.221 76.0389 220.262 74.9905 218.03 72.8949C215.795 70.7981 214.68 68.0311 214.68 64.5949C214.68 61.1727 215.795 58.4199 218.03 56.3372C220.262 54.2558 223.221 53.2139 226.904 53.2139C230.586 53.2139 233.552 54.259 235.799 56.3481C238.047 58.4373 239.171 61.1858 239.171 64.5949C239.171 68.017 238.043 70.7797 235.789 72.884C233.534 74.9873 230.573 76.0389 226.904 76.0389Z" fill="#F7F1E7"/>
<path fill-rule="evenodd" clip-rule="evenodd" d="M249.616 76.0387L239.974 57.6841V57.6635C239.204 56.1805 238.16 55.4103 236.844 55.3527V54.1338H251.17V55.3527C250.456 55.3527 249.93 55.4538 249.594 55.6526C249.258 55.8525 249.09 56.1664 249.09 56.5944C249.09 56.765 249.114 56.9323 249.164 57.0963C249.212 57.2604 249.307 57.4853 249.447 57.771L253.06 65.6213L256.4 58.6043C256.512 58.3761 256.599 58.1306 256.662 57.8666C256.725 57.6027 256.757 57.3354 256.757 57.0637C256.757 56.5076 256.557 56.0839 256.158 55.7917C255.759 55.4994 255.168 55.3527 254.384 55.3527H254.215V54.1338H261.924V55.3527C261.139 55.3962 260.488 55.6276 259.971 56.0491C259.452 56.4684 258.913 57.2354 258.353 58.3479L249.616 76.0387Z" fill="#F7F1E7"/>
<path fill-rule="evenodd" clip-rule="evenodd" d="M266.999 61.0152H268.932C270.836 61.0152 272.005 60.8479 272.439 60.5122C272.874 60.1776 273.09 59.5388 273.09 58.5969C273.09 57.328 272.866 56.3764 272.418 55.7419C271.97 55.1085 271.291 54.7902 270.38 54.7902C269.219 54.7902 268.364 55.2856 267.818 56.2775C267.272 57.2683 266.999 58.8479 266.999 61.0152ZM279.118 71.5609C277.928 73.0156 276.563 74.1237 275.023 74.8874C273.482 75.6501 271.836 76.0315 270.087 76.0315C268.49 76.0315 266.995 75.7044 265.602 75.0483C264.207 74.3921 263.007 73.4502 262 72.2236C261.173 71.2252 260.55 70.1172 260.131 68.8982C259.709 67.6782 259.5 66.3626 259.5 64.9514C259.5 63.4967 259.703 62.1419 260.11 60.8872C260.515 59.6324 261.131 58.4483 261.957 57.3358C262.853 56.0952 264.062 55.0902 265.581 54.3199C267.1 53.5498 268.644 53.1641 270.213 53.1641C272.942 53.1641 275.124 54.0136 276.755 55.7095C278.386 57.4075 279.202 59.6813 279.202 62.533H267.041C267.124 65.072 267.936 67.1828 269.477 68.8657C271.018 70.5485 272.873 71.3904 275.044 71.3904C275.87 71.3904 276.618 71.2361 277.291 70.9297C277.963 70.6234 278.573 70.1639 279.118 69.55V71.5609Z" fill="#F7F1E7"/>
</svg>
