<svg width="223" height="90" viewBox="0 0 223 90" fill="none" xmlns="http://www.w3.org/2000/svg">
<g clip-path="url(#clip0)">
<path d="M4.35046 57.0239H1.76514V34.3931H5.3178L13.3789 53.7459L21.4401 34.3931H24.9294V57.0239H22.3671V38.4161L14.5536 57.0239H12.1986L4.35046 38.4447V57.0239Z" fill="#F7F1E7"/>
<path d="M33.1861 57.471C32.1445 57.5009 31.1106 57.2849 30.169 56.8406C29.4004 56.4815 28.7584 55.9004 28.3264 55.1729C27.9365 54.472 27.738 53.6817 27.7506 52.8806C27.724 52.2417 27.8475 51.6055 28.1114 51.0225C28.3753 50.4395 28.7723 49.9258 29.2707 49.5224C30.5814 48.5793 32.1185 47.9962 33.7274 47.8318L37.0843 47.3504C37.567 47.3136 38.0306 47.1473 38.4259 46.869C38.5465 46.7408 38.639 46.5889 38.6975 46.4232C38.7559 46.2575 38.7791 46.0814 38.7656 45.9063C38.7779 45.4575 38.6885 45.0117 38.5041 44.602C38.3197 44.1923 38.045 43.8291 37.7004 43.5394C36.8552 42.8624 35.7898 42.5178 34.7062 42.5709C33.6955 42.5137 32.6979 42.8209 31.8963 43.4363C31.548 43.7337 31.2627 44.0971 31.0571 44.5055C30.8514 44.9138 30.7296 45.3588 30.6987 45.8146H28.0212C28.093 44.7327 28.4549 43.6898 29.0692 42.7944C29.6685 41.9531 30.4979 41.3007 31.4587 40.9147C32.5202 40.4837 33.6578 40.2693 34.8041 40.2844C36.0154 40.2566 37.2176 40.4994 38.3222 40.995C39.2563 41.4146 40.0425 42.1033 40.5793 42.9721C41.113 43.8716 41.3823 44.9021 41.3567 45.9464V57.024H38.7426V53.8434C38.2315 54.9152 37.4349 55.827 36.4394 56.4795C35.4781 57.1244 34.3454 57.4696 33.1861 57.471V57.471ZM33.7619 55.2818C34.6913 55.3004 35.6046 55.0387 36.3818 54.5311C37.1388 54.004 37.7362 53.2806 38.1092 52.4393C38.5418 51.4976 38.7582 50.4718 38.7426 49.4364V48.6971C38.5182 48.8029 38.2851 48.8892 38.0458 48.955C37.7142 49.0484 37.3752 49.1136 37.0324 49.1499L34.3838 49.5682C33.3429 49.6834 32.3423 50.0343 31.4587 50.594C31.126 50.8213 30.8575 51.1299 30.679 51.4901C30.5006 51.8504 30.4181 52.2503 30.4396 52.6514C30.4258 53.0207 30.5006 53.388 30.6578 53.7229C30.815 54.0577 31.0501 54.3505 31.3436 54.5769C32.0405 55.0645 32.8827 55.3028 33.7331 55.2532L33.7619 55.2818Z" fill="#F7F1E7"/>
<path d="M47.4948 57.0239H44.6504V40.7944H47.4948V43.1727C48.0371 42.2875 48.7983 41.5554 49.7059 41.0465C50.6806 40.5208 51.7758 40.2561 52.8843 40.2786C53.6969 40.2319 54.5099 40.366 55.2639 40.6714C56.0179 40.9767 56.694 41.4455 57.243 42.0437C58.2795 43.2242 58.7977 44.8288 58.7977 46.869V57.0239H55.9878V47.2186C56.0745 46.0197 55.7295 44.8292 55.0147 43.8603C54.6536 43.4645 54.2068 43.1555 53.708 42.957C53.2092 42.7584 52.6715 42.6754 52.1357 42.7142C51.2721 42.6949 50.4229 42.9367 49.7001 43.4076C48.9731 43.8975 48.4065 44.5889 48.0706 45.3962C47.6692 46.3359 47.473 47.3496 47.4948 48.3705V57.0239Z" fill="#F7F1E7"/>
<path d="M69.4844 57.5397C67.9908 57.5646 66.5184 57.1863 65.2235 56.4451C63.9793 55.721 62.9655 54.6623 62.2984 53.3906C61.5831 52.0098 61.223 50.4739 61.2505 48.9206C61.2235 47.3692 61.5835 45.8353 62.2984 44.4563C62.9681 43.1821 63.9809 42.1185 65.2235 41.3846C66.5233 40.6593 67.9884 40.2783 69.4786 40.2783C70.9688 40.2783 72.434 40.6593 73.7337 41.3846C74.9626 42.1211 75.9598 43.1851 76.6127 44.4563C77.3211 45.8372 77.6771 47.3704 77.6491 48.9206C77.6778 50.4727 77.3218 52.0079 76.6127 53.3906C75.9623 54.6591 74.9641 55.7181 73.7337 56.4451C72.4433 57.187 70.9744 57.5654 69.4844 57.5397ZM69.4844 54.9666C70.434 54.9966 71.3704 54.7386 72.1694 54.2269C72.9684 53.7152 73.5923 52.9738 73.9583 52.1012C74.3978 51.0911 74.6119 49.9981 74.5859 48.8977C74.6131 47.7897 74.399 46.6891 73.9583 45.6713C73.5923 44.7986 72.9684 44.0573 72.1694 43.5455C71.3704 43.0338 70.434 42.7759 69.4844 42.8059C68.5163 42.7826 67.5622 43.0394 66.7378 43.5451C65.9477 44.0575 65.3252 44.7885 64.9471 45.6483C64.5064 46.6661 64.2923 47.7668 64.3195 48.8748C64.2935 49.9752 64.5076 51.0682 64.9471 52.0783C65.3252 52.9381 65.9477 53.6691 66.7378 54.1815C67.5572 54.7033 68.5116 54.9762 69.4844 54.9666V54.9666Z" fill="#F7F1E7"/>
<path d="M87.3114 57.0242H84.179L77.6553 40.7603H80.8855L85.7625 53.2648L90.6049 40.7603H93.8351L87.3114 57.0242Z" fill="#F7F1E7"/>
<path d="M102.034 57.5398C100.506 57.5723 98.9989 57.1878 97.6752 56.428C96.4378 55.697 95.4382 54.6266 94.7963 53.3448C94.1001 51.9579 93.7486 50.425 93.7713 48.8748C93.746 47.3497 94.0876 45.8406 94.7675 44.4736C95.4124 43.1938 96.4112 42.1241 97.6464 41.3904C98.9577 40.6125 100.462 40.2154 101.988 40.2443C103.424 40.2035 104.842 40.5713 106.076 41.3045C107.206 42.0274 108.098 43.0659 108.638 44.2902C109.255 45.6968 109.558 47.22 109.525 48.7545C109.525 49.0811 109.525 49.3562 109.496 49.5912H96.9958C97.1071 51.3257 97.6081 52.6342 98.4986 53.5167C98.9741 53.964 99.5353 54.3113 100.149 54.5378C100.762 54.7643 101.415 54.8653 102.069 54.8348C103.023 54.8764 103.965 54.6177 104.763 54.0956C105.48 53.5798 106.007 52.8454 106.266 52.0038H109.364C109.086 53.6451 108.177 55.1145 106.83 56.1013C105.429 57.0815 103.747 57.5859 102.034 57.5398V57.5398ZM97.0937 47.2817H106.306C106.323 46.0892 105.863 44.9391 105.028 44.0839C104.198 43.3287 103.1 42.9311 101.976 42.9778C100.783 42.9315 99.6168 43.3416 98.7174 44.124C97.8294 44.9609 97.2563 46.0753 97.0937 47.2817V47.2817Z" fill="#F7F1E7"/>
<path d="M115.381 57.0238H111.926V40.7255H115.381V43.4591C115.771 42.6105 116.379 41.8792 117.143 41.3387C117.927 40.811 118.857 40.5405 119.803 40.565C119.995 40.565 120.162 40.565 120.304 40.565L120.77 40.6166V43.8602C120.438 43.8174 120.104 43.7963 119.769 43.7972C119.172 43.7732 118.577 43.8815 118.027 44.1145C117.477 44.3474 116.987 44.699 116.59 45.1439C115.735 46.1701 115.301 47.4803 115.375 48.8116L115.381 57.0238Z" fill="#F7F1E7"/>
<path d="M131.457 57.5398C130.395 57.5493 129.348 57.2994 128.405 56.812C127.478 56.3378 126.667 55.6644 126.033 54.8406V57.024H122.48V33.7227H126.033V42.8919C126.658 42.0487 127.47 41.3603 128.405 40.8804C129.36 40.3947 130.419 40.147 131.492 40.1583C132.895 40.14 134.273 40.5391 135.447 41.3045C136.615 42.0743 137.547 43.1488 138.142 44.4106C138.804 45.8053 139.135 47.3327 139.109 48.8748C139.137 50.4191 138.806 51.9488 138.142 53.3448C137.546 54.5951 136.613 55.6564 135.447 56.4108C134.257 57.1687 132.87 57.5614 131.457 57.5398V57.5398ZM130.743 54.4509C131.621 54.4716 132.485 54.2366 133.231 53.7746C133.956 53.3101 134.523 52.6392 134.86 51.8491C135.261 50.9155 135.458 49.9073 135.436 48.892C135.515 47.4164 135.071 45.9601 134.181 44.7773C133.749 44.2999 133.221 43.9182 132.631 43.6568C132.041 43.3955 131.403 43.2605 130.758 43.2605C130.112 43.2605 129.474 43.3955 128.884 43.6568C128.294 43.9182 127.766 44.2999 127.334 44.7773C126.427 45.947 125.966 47.3988 126.033 48.8748C126.005 49.8906 126.202 50.9 126.609 51.8319C126.947 52.6364 127.524 53.3186 128.263 53.7868C129.002 54.255 129.868 54.4868 130.743 54.4509V54.4509Z" fill="#F7F1E7"/>
<path d="M148.956 57.5396C147.426 57.5657 145.916 57.1881 144.58 56.445C143.309 55.7293 142.267 54.6704 141.574 53.3905C140.832 52.0019 140.459 50.4472 140.492 48.8746C140.464 47.3025 140.836 45.749 141.574 44.3588C142.263 43.0778 143.298 42.0139 144.563 41.2871C145.906 40.5613 147.41 40.1812 148.939 40.1812C150.467 40.1812 151.971 40.5613 153.315 41.2871C154.58 42.0142 155.611 43.0858 156.286 44.376C157.005 45.7662 157.371 47.3109 157.351 48.8746C157.378 50.4279 157.018 51.9637 156.303 53.3446C155.624 54.626 154.594 55.6892 153.332 56.4106C152.001 57.1698 150.49 57.5597 148.956 57.5396V57.5396ZM148.956 54.3533C149.8 54.3708 150.631 54.1417 151.345 53.6942C152.053 53.2349 152.605 52.5738 152.929 51.7973C153.322 50.8792 153.518 49.8896 153.505 48.8918C153.519 47.8828 153.323 46.8817 152.929 45.9519C152.601 45.1783 152.058 44.5141 151.363 44.0379C150.646 43.5789 149.808 43.3434 148.956 43.3616C148.093 43.3458 147.245 43.5809 146.515 44.0379C145.804 44.504 145.248 45.1704 144.92 45.9519C144.523 46.8809 144.326 47.8825 144.344 48.8918C144.331 49.8766 144.528 50.853 144.92 51.7572C145.252 52.5319 145.807 53.1918 146.515 53.6541C147.242 54.1195 148.091 54.3626 148.956 54.3533V54.3533Z" fill="#F7F1E7"/>
<path d="M163.834 57.3794C162.855 57.4056 161.882 57.2096 160.99 56.8064C160.233 56.4546 159.598 55.8884 159.164 55.1788C158.736 54.4349 158.519 53.589 158.537 52.7318C158.512 52.0912 158.636 51.4536 158.898 50.8683C159.161 50.283 159.555 49.7656 160.051 49.3564C161.362 48.4085 162.898 47.816 164.508 47.6371L167.773 47.1214C168.176 47.1082 168.565 46.9678 168.884 46.7202C168.991 46.6065 169.074 46.4721 169.128 46.3252C169.181 46.1784 169.204 46.0222 169.195 45.8663C169.197 45.5329 169.121 45.2035 168.972 44.9048C168.823 44.6062 168.605 44.3466 168.337 44.1471C167.673 43.6581 166.859 43.413 166.034 43.4537C165.209 43.3977 164.392 43.6376 163.73 44.1299C163.188 44.5837 162.841 45.2281 162.763 45.9294H158.853C158.932 44.8143 159.317 43.7421 159.965 42.829C160.617 41.9517 161.496 41.2681 162.51 40.8519C163.624 40.3913 164.821 40.1612 166.028 40.1757C167.318 40.1458 168.599 40.4043 169.776 40.9321C170.768 41.3833 171.608 42.1096 172.195 43.0239C172.766 43.9564 173.058 45.0321 173.035 46.1242V57.0241H169.195V54.1014C168.703 55.099 167.934 55.9347 166.978 56.5084C166.032 57.0853 164.943 57.3871 163.834 57.3794V57.3794ZM165.026 54.3249C165.8 54.3362 166.56 54.1167 167.208 53.6946C167.848 53.2673 168.356 52.6722 168.677 51.9753C169.03 51.2263 169.207 50.4071 169.195 49.5799V49.0068C168.996 49.0933 168.79 49.1623 168.579 49.2131C168.294 49.2932 168.003 49.3525 167.709 49.3907L165.573 49.7461C164.769 49.867 164 50.156 163.316 50.5942C163.034 50.7802 162.808 51.0376 162.66 51.3399C162.513 51.6422 162.449 51.9783 162.475 52.3134C162.465 52.598 162.521 52.8809 162.639 53.1404C162.757 53.3998 162.933 53.6287 163.155 53.8092C163.698 54.1942 164.361 54.3768 165.026 54.3249Z" fill="#F7F1E7"/>
<path d="M180.17 57.0241H176.104V40.6627H180.17V43.3619C180.544 42.5091 181.14 41.7713 181.897 41.2243C182.67 40.7079 183.586 40.4436 184.517 40.4678C184.73 40.4678 184.914 40.4678 185.064 40.4678C185.238 40.484 185.411 40.5108 185.582 40.5481V44.3762C185.217 44.3299 184.85 44.3088 184.482 44.3132C183.898 44.2881 183.315 44.39 182.774 44.6116C182.233 44.8333 181.747 45.1695 181.35 45.5969C180.508 46.578 180.079 47.8446 180.152 49.1328L180.17 57.0241Z" fill="#F7F1E7"/>
<path d="M193.96 57.5398C192.555 57.5614 191.174 57.1751 189.987 56.428C188.813 55.6774 187.874 54.6155 187.275 53.362C186.611 51.9599 186.28 50.4246 186.307 48.8748C186.279 47.3157 186.61 45.7708 187.275 44.359C187.873 43.0954 188.812 42.022 189.987 41.2586C191.168 40.4948 192.551 40.096 193.96 40.1125C194.954 40.1052 195.938 40.3186 196.839 40.7371C197.74 41.1535 198.529 41.776 199.142 42.5538V33.7227H203.339V57.024H199.142V55.1271C198.522 55.89 197.734 56.5 196.839 56.9094C195.938 57.3297 194.955 57.5451 193.96 57.5398V57.5398ZM194.898 53.9351C195.69 53.9541 196.471 53.743 197.144 53.3276C197.799 52.8952 198.31 52.2788 198.612 51.5568C198.975 50.7036 199.151 49.7837 199.13 48.8576C199.204 47.5033 198.796 46.1663 197.979 45.0811C197.606 44.6328 197.133 44.2765 196.599 44.0399C196.065 43.8033 195.483 43.6928 194.898 43.7171C194.308 43.6896 193.719 43.7984 193.177 44.035C192.636 44.2716 192.157 44.6296 191.777 45.0811C190.952 46.1691 190.544 47.5142 190.626 48.8748C190.603 49.8005 190.778 50.7204 191.138 51.574C191.443 52.2996 191.961 52.9168 192.624 53.3448C193.309 53.7565 194.099 53.9615 194.898 53.9351V53.9351Z" fill="#F7F1E7"/>
<path d="M214.585 46.6224C213.371 46.6285 212.177 46.3078 211.13 45.694C210.083 45.0865 209.214 44.2173 208.608 43.1724C207.983 42.1232 207.655 40.9252 207.658 39.7053C207.65 38.4962 207.973 37.3077 208.591 36.2669C209.199 35.2265 210.068 34.3615 211.113 33.7568C212.167 33.1479 213.364 32.8271 214.582 32.8271C215.801 32.8271 216.998 33.1479 218.051 33.7568C219.095 34.3619 219.962 35.2269 220.568 36.2669C221.186 37.3077 221.508 38.4962 221.5 39.7053C221.509 40.9236 221.187 42.1215 220.568 43.1724C219.959 44.2191 219.086 45.0885 218.034 45.694C216.989 46.3057 215.798 46.6264 214.585 46.6224V46.6224Z" fill="#F7F1E7"/>
</g>
<defs>
<clipPath id="clip0">
<rect width="219.752" height="24.7111" fill="white" transform="translate(1.76514 32.8286)"/>
</clipPath>
</defs>
</svg>
