<?xml version="1.0" encoding="utf-8"?>
<!-- Generator: Adobe Illustrator 15.0.0, SVG Export Plug-In . SVG Version: 6.00 Build 0)  -->
<!DOCTYPE svg PUBLIC "-//W3C//DTD SVG 1.1//EN" "http://www.w3.org/Graphics/SVG/1.1/DTD/svg11.dtd">
<svg version="1.1" id="Layer_1" xmlns="http://www.w3.org/2000/svg" xmlns:xlink="http://www.w3.org/1999/xlink" x="0px" y="0px"
	 width="245px" height="152px" viewBox="0 75.114 245 152" enable-background="new 0 75.114 245 152" xml:space="preserve">
<title>1</title>
<path fill="#F7F1E7" d="M4.133,135.179h15.335c5.671-0.119,11.862,1.438,11.862,8.227c0,2.956-1.757,5.352-4.313,6.631
	c3.474,1.038,5.67,4.033,5.67,7.788c0,7.827-5.75,10.224-12.779,10.224H4.133V135.179z M12.679,148.119h6.63
	c1.477,0,3.474-0.8,3.474-3.115c0-2.396-1.717-3.155-3.474-3.155h-6.63V148.119z M12.679,161.137h6.83
	c2.716,0,4.593-0.958,4.593-3.673c0-2.916-2.037-3.874-4.593-3.874h-6.83V161.137z"/>
<path fill="#F7F1E7" d="M35.203,144.166h7.587v4.192h0.081c1.158-3.075,3.833-4.633,7.188-4.633c0.618-0.012,1.236,0.055,1.837,0.2
	v7.109c-0.966-0.317-1.978-0.479-2.995-0.479c-3.874,0-5.871,2.676-5.871,5.671v11.821h-7.827V144.166L35.203,144.166z"/>
<path fill="#F7F1E7" d="M53.294,151.513c0.12-3.115,1.557-5.151,3.713-6.39c2.157-1.238,4.833-1.638,7.588-1.638
	c5.671,0,11.142,1.238,11.142,7.987v10.424c0,2.036,0,4.231,0.919,6.109H68.79c-0.32-0.719-0.32-1.478-0.479-2.235
	c-2.037,2.156-4.952,2.955-7.867,2.955c-4.593,0-8.147-2.317-8.147-7.229c0-7.708,8.467-7.188,13.898-8.267
	c1.317-0.32,2.076-0.72,2.076-2.197c0-1.797-2.157-2.476-3.753-2.476c-2.237,0-3.555,0.999-3.914,2.995h-7.308V151.513z
	 M63.398,163.853c3.714,0,4.952-2.076,4.793-7.029c-1.119,0.68-3.116,0.8-4.833,1.277c-1.798,0.401-3.235,1.159-3.235,3.036
	C60.123,163.134,61.601,163.853,63.398,163.853L63.398,163.853z"/>
<path fill="#F7F1E7" d="M79.492,144.166h7.588v3.273h0.08c1.478-2.436,4.632-3.954,7.508-3.954c7.947,0,8.586,5.792,8.586,9.226
	v15.295h-7.827v-13.938c0-2.316-0.799-4.193-3.915-4.193c-2.955,0-4.233,2.517-4.233,5.113v13.018h-7.827v-23.841H79.492z"/>
<path fill="#F7F1E7" d="M130.691,168.006h-7.429v-2.755h-0.08c-1.557,2.315-3.754,3.434-6.589,3.434
	c-7.508,0-10.663-6.39-10.663-13.139c0-6.189,3.315-12.101,10.064-12.101c2.916,0,5.191,1.119,6.789,3.276h0.08v-11.542h7.828
	V168.006z M113.718,155.827c0,3.274,1.238,6.908,4.792,6.908c3.834,0,4.633-3.634,4.633-6.668c0-3.436-1.239-6.63-4.633-6.63
	C114.956,149.437,113.718,152.791,113.718,155.827z"/>
<path fill="#F7F1E7" d="M142.272,141.17h-7.827v-5.991h7.827V141.17z M134.445,144.166h7.827v23.841h-7.827V144.166z"/>
<path fill="#F7F1E7" d="M152.016,160.14c-0.034,1.046,0.443,2.043,1.279,2.676c0.719,0.559,1.797,0.838,2.916,0.838
	c1.478,0,3.674-0.679,3.674-2.517c0-1.877-2.477-2.156-3.834-2.515c-4.912-1.239-11.062-1.398-11.062-7.828
	c0-5.711,6.19-7.309,10.902-7.309c5.192,0,10.743,1.518,10.982,7.708h-7.229c0-0.958-0.32-1.638-0.999-2.077
	c-0.599-0.4-1.438-0.6-2.477-0.6c-1.278,0-3.354,0.121-3.354,1.798c0,2.196,5.232,2.716,8.826,3.435
	c4.793,0.959,6.07,4.473,6.07,6.43c0,6.391-6.07,8.505-11.461,8.505c-5.711,0-11.462-1.875-11.661-8.544H152.016z"/>
<path fill="#F7F1E7" d="M169.908,135.179h7.827V147.4h0.08c1.238-2.437,4.393-3.955,7.269-3.955c7.947,0,8.586,5.792,8.586,9.226
	v15.296h-7.828v-13.939c0-2.314-0.798-4.192-3.913-4.192c-2.956,0-4.233,2.516-4.233,5.112v13.02h-7.828v-32.789H169.908z"/>
<path fill="#F7F1E7" d="M198.023,147.759c0.608-0.559,1.312-1.006,2.077-1.318l0,0c0.639,0.679,1.677,0.56,1.717,0.48l0,0
	c-0.026,0.337,0.059,0.672,0.239,0.958l0,0c-0.69,0.677-1.029,1.636-0.918,2.596c0.475-0.735,1.101-1.361,1.837-1.836
	c0,0,1.597,0.599,2.156-1.238c0.759-2.477,1.159-2.755,2.796-4.033c1.638-1.279,5.152-4.354,5.312-4.553
	c0.08-0.08,2.316,2.556,7.828,5.592c1.357,0.758,3.155,1.795,3.195,3.434c0.04,2.556,2.156,5.59,5.671,7.03
	c0.679,0.28,2.157,0.479,2.196,2.075c0.04,1.559-3.235,4.714-4.873,4.393c-1.118-0.199-2.077,0.681-2.037,1.599l0,0
	c-0.895,0.43-1.532,1.261-1.717,2.237c0.61-0.52,1.315-0.914,2.077-1.159c0.349,0.433,0.884,0.671,1.438,0.639
	c-0.378,0.44-0.499,1.047-0.319,1.598l0,0c-0.698,0.706-1.036,1.691-0.918,2.675c0.439-0.687,0.993-1.294,1.637-1.796l0,0
	c0.559,0.31,1.238,0.31,1.797,0l0,0c0.069,0.333,0.236,0.638,0.479,0.878l0,0c-0.486,0.825-0.56,1.829-0.2,2.717
	c0.247-0.856,0.699-1.639,1.318-2.276c0,0,1.677,0.159,1.757-1.758c0.119-2.556,1.917-4.912,2.916-6.83
	c0.999-1.916,1.557-5.751,1.557-5.949c0-0.6-0.08-1.877-2.036-2.117c-1.227-0.118-2.125-1.207-2.007-2.433
	c0.002-0.027,0.006-0.055,0.009-0.083c0.04-0.28,1.638-4.753,1.757-5.392l0,0c3.714-1.078,5.152-5.072,5.072-7.229
	c-0.08-2.076,2.875-1.917,4.632-0.28c-0.918-3.474-4.074-3.914-5.231-2.995c-1.317-3.114,2.596-2.955,4.034-1.597
	c-1.838-4.114-5.271-2.716-5.831-2.436h-0.04c-1.957-3.595-4.513-6.989-5.551-9.425c-2.157-5.231,0.639-6.909,2.316-6.909
	c3.594,0,3.674,3.914,2.157,5.072c-1.677,1.318-3.115,0.439-3.115,0.439c0.249,0.416,0.574,0.783,0.958,1.078
	c0.559,0.399,1.797,0.799,3.035,0.799c0.319,1.118,2.037,3.514,4.632,3.074c-0.758-0.559-1.158-0.599-1.717-2.236
	c-0.879-2.556,0.878-10.543-5.87-10.543c-4.753,0-6.709,3.994-5.192,9.186c1.278,4.392,10.383,14.337,7.708,18.85
	c-0.958,1.598-1.757,2.076-2.396,2.156c-2.955-5.67-11.182-5.151-10.303-9.385c0.679,0.239,1.957,0.16,2.636,0.04
	c-1.278-1.039-2.037-2.276-2.196-3.634c0.479,0.24,1.397,0.319,2.396,0.04c-0.52-0.479-1.798-1.358-1.917-3.714
	c0.48,0.36,1.479,0.399,1.997,0.24c-0.999-0.999-1.557-2.756-1.597-4.353c0.456,0.347,1.028,0.504,1.597,0.439
	c-1.078-1.038-1.278-2.196-1.317-3.274c-0.12-3.035-1.677-2.796-1.838-5.391c-0.079-1.598-1.277-2.557-2.755-2.557
	c-0.08-0.558,0.04-0.838,0.479-1.317c-1.836,0-2.076,1.159-3.714,1.238c-0.479,0.04-2.516-0.04-3.115,0.798
	c-0.319,0.479-0.839,0.56-1.357,0.679c-1.039,0.28-2.237,0.479-3.195,0.959c-0.399,0.159-0.439,0.558-0.04,0.998
	c0.205-0.132,0.437-0.214,0.679-0.24c-0.28,0.24-0.958,0.879-0.439,1.558c0.32,0.44,0.679,0.799,0.999,1.239
	c0.477-0.76,1.478-0.989,2.237-0.514c0.055,0.035,0.108,0.073,0.159,0.114c0.626,0.548,0.73,1.484,0.239,2.156
	c-0.554,0.702-1.569,0.827-2.276,0.28c-0.16,0.2,0.24,0.559,0.12,1.039c-0.24,1.039,0.319,2.036,1.557,1.517
	c0.549-0.156,1.11-0.262,1.677-0.319c2.197-0.159,3.115-1.198,3.634-2.077c0,0.281,1.158,1.997-5.111,3.914
	c-6.271,1.917-5.312,9.984-3.914,11.941c0,0-3.195,5.592-4.233,6.47c-1.038,0.918-2.516,1.518-4.034,0.798
	c-0.853-0.416-1.881-0.062-2.298,0.791c-0.039,0.08-0.072,0.163-0.098,0.249l0,0c-0.978,0.181-1.809,0.819-2.237,1.717
	c0.725-0.344,1.514-0.535,2.316-0.559c0.224,0.516,0.687,0.888,1.238,0.998c-0.47,0.343-0.739,0.896-0.719,1.478l0,0
	C198.862,145.882,198.144,146.681,198.023,147.759z M218.231,111.537c-0.918,0.439-1.438,0.24-2.236,0.999
	c-0.04-0.52-0.52-0.719-0.559-1.158C216.394,110.938,217.313,110.858,218.231,111.537z"/>
<path fill="#F7F1E7" d="M207.248,116.729c0,0,0,1.398,1.159,1.398c1.117,0,2.276-2.477,4.792-1.838
	c-2.396,0.2-3.235,2.676-4.752,2.676C206.57,118.965,207.248,116.729,207.248,116.729z"/>
<path fill="#F7F1E7" d="M221.346,158.063c0.04-0.999-0.838-1.559-1.478-2.116c-0.958-0.839-1.557-2.716-1.358-3.116
	c1.438-1.278,4.273,0.8,6.151-0.398c-2.037-2.197-1.518-3.915-1.957-4.673c-0.64-1.078-2.037-1.877-2.037-1.877
	s-3.913,0.639-5.63,1.796c-1.838,1.238-3.635,3.196-3.395,4.194c0.08,0.28,0,0.52,1.358,1.997c1.358,1.478,2.556,2.635,2.795,3.115
	c0.24,0.439,0.599,1.396-0.958,2.675c-1.211,0.952-2.865,1.107-4.233,0.399c-1.038-0.518-2.196,0.081-2.436,0.959l0,0
	c-0.983,0.163-1.83,0.786-2.276,1.678c0.729-0.325,1.517-0.503,2.316-0.52c0.204,0.516,0.655,0.892,1.198,1
	c-0.491,0.327-0.778,0.886-0.759,1.476l0,0c-0.869,0.485-1.471,1.336-1.637,2.317c0.611-0.537,1.314-0.957,2.077-1.238l0,0
	c0.639,0.678,1.717,0.599,1.717,0.479l0,0c-0.034,0.346,0.035,0.692,0.2,0.997l0,0c-0.7,0.656-1.055,1.601-0.958,2.557
	c0.479-0.733,1.122-1.35,1.876-1.797c0,0,1.597,0.639,2.197-1.197c0.838-2.437,0.958-2.597,2.595-3.756
	C218.47,161.817,221.346,158.863,221.346,158.063z"/>
<path fill="#F7F1E7" d="M193.63,120.961c0.241-0.277,0.59-0.437,0.959-0.438c0,0,0.199-0.279,0.239-0.36
	c-0.438-0.944-0.027-2.064,0.917-2.501c0.226-0.105,0.472-0.165,0.721-0.174c-0.276-1.019,0.325-2.068,1.343-2.344
	c0.239-0.065,0.488-0.083,0.734-0.052c0.04-0.04,0.199-0.279,0.199-0.279c-0.082-0.218-0.123-0.447-0.12-0.68
	c-0.481-0.374-0.854-0.871-1.078-1.437c-0.216,0.05-0.443,0.022-0.639-0.081c-0.406-0.236-0.543-0.756-0.307-1.161
	c0.236-0.405,0.757-0.543,1.162-0.307c0.405,0.236,0.543,0.756,0.307,1.162c-0.013,0.022-0.028,0.045-0.043,0.067
	c0.291,0.299,0.612,0.567,0.958,0.799c0.315-0.364,0.758-0.593,1.238-0.64c0,0,13.139-18.051,14.138-19.409
	c1.117-1.517,3.873-3.474,3.873-3.474s-1.078,3.236-2.156,4.753c-1.038,1.438-14.137,19.409-14.137,19.409
	c0.115,0.461,0.042,0.949-0.2,1.358c0.311,0.276,0.661,0.504,1.038,0.679c0.287-0.384,0.829-0.461,1.211-0.176
	c0.023,0.018,0.046,0.036,0.066,0.056c0.354,0.331,0.372,0.885,0.041,1.238c-0.331,0.354-0.885,0.371-1.238,0.04l0,0
	c-0.163-0.158-0.263-0.372-0.279-0.599c-0.6-0.029-1.179-0.223-1.678-0.558c-0.268,0.099-0.557,0.127-0.838,0.08
	c0,0-0.12,0.16-0.16,0.199c0.439,0.719,1.039,4.394,7.907,9.025c-0.239,1.278-1.357,3.275-0.16,7.389
	c-6.15-1.917-9.105-11.022-11.501-11.262l-0.24,0.279c0.117,0.452-0.004,0.933-0.32,1.278c-0.495,0.551-1.342,0.596-1.893,0.102
	c-0.008-0.007-0.016-0.014-0.023-0.021C193.14,122.381,193.122,121.522,193.63,120.961z"/>
</svg>
