<?xml version="1.0" encoding="UTF-8" standalone="no" ?>
<!DOCTYPE svg PUBLIC "-//W3C//DTD SVG 1.1//EN" "http://www.w3.org/Graphics/SVG/1.1/DTD/svg11.dtd">
<svg xmlns="http://www.w3.org/2000/svg" xmlns:xlink="http://www.w3.org/1999/xlink" version="1.1" width="300" height="150" viewBox="0 0 300 150" xml:space="preserve">
<desc>Created with Fabric.js 5.2.4</desc>
<defs>
</defs>
<g transform="matrix(1 0 0 1 150 75)" id="77028e37-e4b8-4329-99e3-b69eb6021299"  >
<rect style="stroke: none; stroke-width: 1; stroke-dasharray: none; stroke-linecap: butt; stroke-dashoffset: 0; stroke-linejoin: miter; stroke-miterlimit: 4; fill: rgb(255,255,255); fill-rule: nonzero; opacity: 1; visibility: hidden;" vector-effect="non-scaling-stroke"  x="-150" y="-75" rx="0" ry="0" width="300" height="150" />
</g>
<g transform="matrix(Infinity NaN NaN Infinity 0 0)" id="e342304e-a86b-452a-b5af-901c1c3f2c1c"  >
</g>
<g transform="matrix(0.76 0 0 0.76 150 75)"  >
<g style="" vector-effect="non-scaling-stroke"   >
		<g transform="matrix(1 0 0 1 -136.35 -5.82)"  >
<path style="stroke: none; stroke-width: 1; stroke-dasharray: none; stroke-linecap: butt; stroke-dashoffset: 0; stroke-linejoin: miter; stroke-miterlimit: 4; fill: rgb(247,241,231); fill-rule: evenodd; opacity: 1;" vector-effect="non-scaling-stroke"  transform=" translate(-33.65, -24.23)" d="M 45.3275 17.7879 C 44.5151 17.6388 43.6814 17.5488 42.8263 17.5488 C 42.5733 17.5488 42.3273 17.5737 42.0778 17.5879 C 41.6508 16.5915 41.1329 15.6448 40.5498 14.7454 C 41.2961 14.6424 42.0517 14.5714 42.8263 14.5714 C 43.206 14.5714 43.5785 14.6034 43.951 14.6294 C 44.495 15.6341 44.9432 16.6968 45.3275 17.7879 M 36.8106 18.9487 C 36.3589 18.0494 35.8208 17.2021 35.1917 16.4281 C 36.0987 15.9631 37.0483 15.5726 38.0405 15.2755 C 38.6484 16.1098 39.177 16.9997 39.624 17.9393 C 38.6413 18.1748 37.7011 18.5156 36.8106 18.9487 M 30.753 12.8384 C 31.7192 12.2065 32.7374 11.6515 33.7993 11.1746 C 34.7419 11.8065 35.6158 12.5319 36.4093 13.3354 C 35.3876 13.7011 34.4025 14.1401 33.4694 14.6655 C 32.6428 13.9543 31.7322 13.3413 30.753 12.8384 M 40.0478 9.42174 C 40.917 10.2844 41.7011 11.2299 42.4189 12.2252 C 41.2304 12.2512 40.0632 12.3707 38.9362 12.6038 C 38.1722 11.7234 37.3349 10.9104 36.4255 10.1803 C 37.5939 9.82527 38.8061 9.57913 40.0478 9.42174 M 42.8253 6.86077 C 42.1595 6.86077 41.5067 6.9081 40.8539 6.96135 C 36.5114 3.03847 30.7806 0.62793 24.4832 0.62793 C 10.9828 0.62793 0 11.6179 0 25.1273 L 0 47.8221 L 2.36519 47.8221 L 2.36519 25.1273 C 2.36519 12.9232 12.2883 2.99468 24.4832 2.99468 C 29.4359 2.99468 33.9984 4.65141 37.6893 7.4134 C 36.4192 7.68558 35.1928 8.07136 34.0043 8.53169 C 31.1968 6.91284 27.9518 5.97205 24.4832 5.97205 C 13.9286 5.97205 5.34059 14.5645 5.34059 25.1273 L 5.34059 47.8221 L 7.70578 47.8221 L 7.70578 25.1273 C 7.70578 15.8698 15.2318 8.3388 24.4832 8.3388 C 26.8946 8.3388 29.1817 8.85949 31.2548 9.77897 C 30.1514 10.373 29.1143 11.0677 28.1209 11.8191 C 26.9596 11.5008 25.7439 11.3162 24.4832 11.3162 C 16.8733 11.3162 10.6812 17.5123 10.6812 25.1273 L 10.6812 47.8221 L 13.0464 47.8221 L 13.0464 25.1273 C 13.0464 18.8164 18.1765 13.6829 24.4832 13.6829 C 24.9385 13.6829 25.3844 13.7172 25.8243 13.7681 C 21.2193 18.2259 18.342 24.4587 18.342 31.3614 L 18.342 47.8221 L 20.7072 47.8221 L 20.7072 31.3614 C 20.7072 24.5854 23.7725 18.5182 28.5809 14.4545 C 29.598 14.8474 30.5429 15.3799 31.3955 16.0307 C 26.7254 19.5264 23.6826 25.0871 23.6826 31.3614 L 23.6826 47.8221 L 26.0478 47.8221 L 26.0478 31.3614 C 26.0478 25.7119 28.8577 20.7181 33.1446 17.6733 C 33.7914 18.4247 34.3378 19.2625 34.7754 20.1655 C 31.2985 22.6754 29.0232 26.7533 29.0232 31.3614 L 29.0232 47.8221 L 31.3884 47.8221 L 31.3884 31.3614 C 31.3884 27.7888 33.0334 24.5948 35.6044 22.4955 C 35.8042 23.3416 35.9213 24.2209 35.9213 25.1273 L 35.9213 47.8221 L 38.2865 47.8221 L 38.2865 25.1273 C 38.2865 23.7428 38.0772 22.408 37.6964 21.1453 C 38.5774 20.7003 39.5176 20.3572 40.5098 20.1524 C 40.9982 21.7251 41.2619 23.3961 41.2619 25.1273 L 41.2619 47.8221 L 43.6271 47.8221 L 43.6271 25.1273 C 43.6271 23.3203 43.3586 21.5784 42.8891 19.9193 C 43.9984 19.9252 45.0687 20.0933 46.0821 20.395 C 46.4156 21.9216 46.6037 23.5026 46.6037 25.1273 L 46.6037 47.8221 L 48.9689 47.8221 L 48.9689 25.1273 C 48.9689 23.9073 48.8494 22.718 48.6768 21.5453 C 52.0152 23.5452 54.2633 27.1912 54.2633 31.3614 L 54.2633 47.8221 L 56.6285 47.8221 L 56.6285 31.3614 C 56.6285 25.5972 53.0796 20.653 48.0559 18.5856 C 47.7177 17.3703 47.2943 16.1952 46.7822 15.0627 C 54.1273 16.8508 59.6039 23.4694 59.6039 31.3614 L 59.6039 47.8221 L 61.9691 47.8221 L 61.9691 31.3614 C 61.9691 21.6601 54.7198 13.6415 45.3608 12.393 C 44.682 11.283 43.9286 10.2263 43.0878 9.24053 C 55.1621 9.38372 64.9445 19.2448 64.9445 31.3614 L 64.9445 47.8221 L 67.3097 47.8221 L 67.3097 31.3614 C 67.3097 17.852 56.327 6.86077 42.8253 6.86077" stroke-linecap="round" />
</g>
		<g transform="matrix(1 0 0 1 -60.97 -2.13)"  >
<path style="stroke: none; stroke-width: 1; stroke-dasharray: none; stroke-linecap: butt; stroke-dashoffset: 0; stroke-linejoin: miter; stroke-miterlimit: 4; fill: rgb(247,241,231); fill-rule: evenodd; opacity: 1;" vector-effect="non-scaling-stroke"  transform=" translate(-109.03, -27.91)" d="M 84.5686 47.3016 L 84.5686 45.6978 C 86.4102 45.5849 87.7324 44.8901 88.5353 43.6151 C 89.3353 42.3386 89.8477 40.03 90.068 36.6908 L 91.4773 15.6649 C 91.4969 15.4776 91.5096 15.2861 91.5194 15.0888 C 91.5278 14.8901 91.5334 14.5956 91.5334 14.2011 C 91.5334 12.4372 91.2387 11.1621 90.6492 10.373 C 90.0596 9.58538 89.0911 9.17227 87.7464 9.1351 L 87.7464 7.53125 L 104.274 7.53125 L 109.194 25.5724 L 114.418 7.53125 L 131.001 7.53125 L 131.001 9.1351 C 129.378 9.2852 128.283 9.64113 127.712 10.2043 C 127.141 10.7675 126.855 11.7996 126.855 13.3005 C 126.855 13.9581 126.864 14.5813 126.883 15.1717 C 126.901 15.7635 126.929 16.3124 126.965 16.8199 L 128.32 38.3504 C 128.54 41.5423 128.992 43.525 129.674 44.3041 C 130.355 45.0831 131.627 45.5463 133.488 45.6978 L 133.488 47.3016 L 111.792 47.3016 L 111.792 45.6978 C 113.45 45.4719 114.566 45.0974 115.136 44.5714 C 115.707 44.0468 115.993 43.1734 115.993 41.954 C 115.993 41.5595 115.983 41.0906 115.965 40.546 C 115.947 40.0028 115.919 39.411 115.882 38.7735 L 114.75 15.4962 L 104.91 48.2865 L 93.5785 16.1151 L 92.1693 36.8023 C 92.1496 37.0095 92.1174 37.4412 92.0724 38.0988 C 92.0261 38.7549 92.0037 39.2709 92.0037 39.6469 C 92.0037 41.7668 92.3532 43.2949 93.0536 44.234 C 93.7526 45.1732 94.8867 45.6606 96.4532 45.6978 L 96.4532 47.3016 L 84.5686 47.3016 Z" stroke-linecap="round" />
</g>
		<g transform="matrix(1 0 0 1 -21.27 3.42)"  >
<path style="stroke: none; stroke-width: 1; stroke-dasharray: none; stroke-linecap: butt; stroke-dashoffset: 0; stroke-linejoin: miter; stroke-miterlimit: 4; fill: rgb(247,241,231); fill-rule: evenodd; opacity: 1;" vector-effect="non-scaling-stroke"  transform=" translate(-148.73, -33.47)" d="M 150.041 30.6954 C 148.381 31.3715 147.12 32.4365 146.254 33.8888 C 145.388 35.344 144.955 37.1222 144.955 39.2235 C 144.955 40.4257 145.19 41.382 145.66 42.0953 C 146.13 42.8086 146.742 43.1645 147.497 43.1645 C 148.474 43.1645 149.142 42.77 149.502 41.9824 C 149.861 41.1947 150.041 39.2235 150.041 36.0716 L 150.041 30.6954 Z M 150.567 43.6704 C 149.166 45.3029 147.696 46.5179 146.158 47.3156 C 144.619 48.1132 142.994 48.512 141.28 48.512 C 139.015 48.512 137.176 47.8602 135.767 46.5565 C 134.357 45.2528 133.653 43.5775 133.653 41.532 C 133.653 39.1119 134.725 37.0049 136.871 35.2123 C 139.018 33.4212 143.408 31.2199 150.042 28.6125 L 150.042 26.6141 C 150.042 24.5128 149.779 23.0062 149.253 22.0956 C 148.728 21.1865 147.867 20.7305 146.67 20.7305 C 145.693 20.7305 144.882 21.0264 144.238 21.6167 C 143.592 22.2085 143.271 22.9447 143.271 23.8267 C 143.271 24.2956 143.287 24.8445 143.325 25.4749 C 143.362 26.1024 143.38 26.5012 143.38 26.6713 C 143.38 28.0407 143.008 29.1428 142.261 29.9777 C 141.515 30.8125 140.525 31.2299 139.29 31.2299 C 138.167 31.2299 137.263 30.8682 136.582 30.1463 C 135.9 29.423 135.559 28.471 135.559 27.2888 C 135.559 24.7373 136.748 22.6231 139.124 20.942 C 141.502 19.2639 144.559 18.4233 148.3 18.4233 C 150.401 18.4233 152.303 18.6949 154.007 19.2396 C 155.712 19.7842 157.108 20.5718 158.195 21.6039 C 159.078 22.4473 159.706 23.4336 160.073 24.5586 C 160.443 25.685 160.628 27.3846 160.628 29.6532 L 160.628 37.6753 C 160.628 39.9081 160.798 41.4948 161.139 42.4325 C 161.478 43.3702 162.027 43.8391 162.782 43.8391 C 162.948 43.8391 163.114 43.8019 163.281 43.7262 C 163.446 43.6519 163.62 43.5389 163.806 43.3888 L 163.806 45.2185 C 163.067 46.1748 162.114 46.9182 160.945 47.4428 C 159.774 47.9674 158.48 48.2304 157.061 48.2304 C 155.44 48.2304 154.081 47.8459 152.985 47.0768 C 151.889 46.3078 151.082 45.1728 150.567 43.6704 L 150.567 43.6704 Z" stroke-linecap="round" />
</g>
		<g transform="matrix(1 0 0 1 11.01 2.71)"  >
<path style="stroke: none; stroke-width: 1; stroke-dasharray: none; stroke-linecap: butt; stroke-dashoffset: 0; stroke-linejoin: miter; stroke-miterlimit: 4; fill: rgb(247,241,231); fill-rule: evenodd; opacity: 1;" vector-effect="non-scaling-stroke"  transform=" translate(-181.01, -32.75)" d="M 178.631 41.588 C 178.631 43.0332 178.885 44.0695 179.391 44.6985 C 179.898 45.326 180.74 45.6605 181.919 45.6977 L 181.919 47.3016 L 164.424 47.3016 L 164.424 45.6977 L 164.591 45.6977 C 165.807 45.6977 166.677 45.3832 167.202 44.7543 C 167.727 44.1253 167.99 43.0704 167.99 41.588 L 167.99 30.9771 C 167.99 30.0752 167.88 29.409 167.658 28.9788 C 167.438 28.5471 167.023 28.1239 166.415 27.7123 L 162.96 25.235 C 165.244 24.3902 167.608 23.3867 170.049 22.2231 C 172.49 21.061 175.029 19.7173 177.664 18.1992 L 177.664 22.9822 C 178.77 21.4827 180.06 20.3548 181.533 19.6058 C 183.007 18.8553 184.665 18.4794 186.508 18.4794 C 189.53 18.4794 191.783 19.2642 193.265 20.8309 C 194.749 22.3961 195.49 24.7847 195.49 27.9924 L 195.49 41.588 C 195.49 43.0704 195.752 44.1253 196.279 44.7543 C 196.804 45.3832 197.674 45.6977 198.889 45.6977 L 199.055 45.6977 L 199.055 47.3016 L 184.85 47.3016 L 184.85 28.2755 C 184.85 26.2485 184.605 24.8405 184.117 24.0514 C 183.629 23.2652 182.805 22.8707 181.643 22.8707 C 180.556 22.8707 179.782 23.2781 179.323 24.0957 C 178.861 24.9105 178.631 26.3042 178.631 28.2755 L 178.631 41.588 Z" stroke-linecap="round" />
</g>
		<g transform="matrix(1 0 0 1 45.06 6.45)"  >
<path style="stroke: none; stroke-width: 1; stroke-dasharray: none; stroke-linecap: butt; stroke-dashoffset: 0; stroke-linejoin: miter; stroke-miterlimit: 4; fill: rgb(247,241,231); fill-rule: evenodd; opacity: 1;" vector-effect="non-scaling-stroke"  transform=" translate(-215.06, -36.49)" d="M 214.989 36.1265 C 216.408 36.1265 217.43 35.5262 218.057 34.3254 C 218.683 33.1247 218.996 31.1449 218.996 28.3875 C 218.996 25.5543 218.683 23.513 218.057 22.2651 C 217.43 21.0172 216.408 20.3925 214.989 20.3925 C 213.551 20.3925 212.52 20.9943 211.892 22.195 C 211.266 23.3958 210.953 25.4399 210.953 28.3303 C 210.953 31.1077 211.272 33.1018 211.908 34.3111 C 212.542 35.5219 213.57 36.1265 214.989 36.1265 M 205.648 50.9878 C 205.574 51.1765 205.517 51.3537 205.482 51.5238 C 205.444 51.6925 205.426 51.8612 205.426 52.0298 C 205.426 53.4193 206.264 54.62 207.941 55.6335 C 209.617 56.6456 211.719 57.153 214.242 57.153 C 216.693 57.153 218.655 56.7156 220.131 55.8436 C 221.603 54.9717 222.341 53.8324 222.341 52.4244 C 222.341 51.561 222.033 50.8677 221.415 50.3417 C 220.797 49.8156 219.973 49.554 218.942 49.554 C 218.296 49.554 216.828 49.8814 214.533 50.5389 C 212.239 51.195 210.272 51.5238 208.632 51.5238 C 208.172 51.5238 207.683 51.4766 207.168 51.3837 C 206.652 51.288 206.145 51.1579 205.648 50.9878 M 205.813 35.8737 C 204.524 35.0289 203.542 33.984 202.87 32.7361 C 202.196 31.4882 201.861 30.113 201.861 28.6121 C 201.861 25.5917 203.123 23.1287 205.648 21.2232 C 208.172 19.3192 211.47 18.3672 215.542 18.3672 C 216.039 18.3672 216.55 18.3958 217.076 18.4515 C 217.601 18.5073 218.149 18.5916 218.72 18.7045 C 219.328 17.0921 220.25 15.8242 221.484 14.9036 C 222.717 13.9859 224.118 13.5242 225.685 13.5242 C 226.827 13.5242 227.772 13.863 228.517 14.5377 C 229.264 15.2138 229.637 16.0686 229.637 17.0992 C 229.637 17.9826 229.351 18.7188 228.781 19.3092 C 228.208 19.8996 227.5 20.1955 226.652 20.1955 C 225.915 20.1955 225.012 19.8824 223.944 19.2534 C 222.875 18.6245 222.128 18.31 221.705 18.31 C 221.429 18.31 221.189 18.3715 220.987 18.493 C 220.783 18.6159 220.608 18.7989 220.46 19.0419 C 222.949 19.9053 224.845 21.1403 226.155 22.7442 C 227.463 24.348 228.117 26.2292 228.117 28.3877 C 228.117 31.3324 226.864 33.7253 224.358 35.5636 C 221.853 37.4047 218.554 38.3224 214.464 38.3224 C 213.358 38.3224 212.258 38.2195 211.161 38.0122 C 210.065 37.8064 208.965 37.5062 207.859 37.1117 C 206.974 37.2632 206.278 37.5734 205.771 38.0408 C 205.265 38.5111 205.012 39.0643 205.012 39.7018 C 205.012 40.4523 205.293 41.0627 205.854 41.5315 C 206.417 42.0004 207.158 42.2348 208.079 42.2348 C 208.945 42.2348 210.485 41.7946 212.695 40.9126 L 212.999 40.7997 C 214.805 40.0878 216.269 39.5989 217.393 39.3359 C 218.518 39.0743 219.604 38.9428 220.655 38.9428 C 223.418 38.9428 225.662 39.7819 227.385 41.4601 C 229.108 43.1397 229.969 45.3225 229.969 48.0056 C 229.969 51.4577 228.531 54.2294 225.658 56.3221 C 222.783 58.4149 218.922 59.4598 214.077 59.4598 C 210.116 59.4598 207.011 58.908 204.762 57.8002 C 202.515 56.6924 201.391 55.1729 201.391 53.2402 C 201.391 52.5084 201.538 51.8508 201.833 51.2704 C 202.128 50.6887 202.589 50.154 203.215 49.6666 C 202.22 48.9704 201.459 48.0985 200.934 47.0493 C 200.409 45.9972 200.147 44.815 200.147 43.5013 C 200.147 41.6816 200.627 40.1292 201.584 38.8427 C 202.542 37.5577 203.952 36.5685 205.813 35.8737" stroke-linecap="round" />
</g>
		<g transform="matrix(1 0 0 1 72.66 2.71)"  >
<path style="stroke: none; stroke-width: 1; stroke-dasharray: none; stroke-linecap: butt; stroke-dashoffset: 0; stroke-linejoin: miter; stroke-miterlimit: 4; fill: rgb(247,241,231); fill-rule: evenodd; opacity: 1;" vector-effect="non-scaling-stroke"  transform=" translate(-242.66, -32.75)" d="M 244.622 23.1516 C 245.543 21.5749 246.542 20.3927 247.62 19.6065 C 248.698 18.8174 249.855 18.4229 251.088 18.4229 C 252.453 18.4229 253.549 18.836 254.379 19.6623 C 255.207 20.4885 255.621 21.5749 255.621 22.9271 C 255.621 24.1093 255.276 25.057 254.585 25.7689 C 253.894 26.4822 252.978 26.8396 251.835 26.8396 C 250.804 26.8396 249.813 26.4164 248.864 25.5716 C 247.915 24.7283 247.313 24.3066 247.053 24.3066 C 246.445 24.3066 246.013 24.7197 245.755 25.5445 C 245.496 26.3707 245.367 27.843 245.367 29.9644 L 245.367 41.5873 C 245.367 43.051 245.658 44.1017 246.239 44.7407 C 246.819 45.3782 247.773 45.697 249.098 45.697 L 249.265 45.697 L 249.265 47.3023 L 231.162 47.3023 L 231.162 45.697 L 231.328 45.697 C 232.544 45.697 233.415 45.3839 233.94 44.7535 C 234.465 44.126 234.728 43.0711 234.728 41.5873 L 234.728 30.9778 C 234.728 30.0759 234.617 29.4097 234.395 28.978 C 234.175 28.5463 233.761 28.1246 233.151 27.7115 L 229.697 25.2343 C 231.502 24.5967 233.585 23.7191 235.943 22.6026 C 238.301 21.4862 241.194 20.0196 244.622 18.1985 L 244.622 23.1516 Z" stroke-linecap="round" />
</g>
		<g transform="matrix(1 0 0 1 101.21 3.45)"  >
<path style="stroke: none; stroke-width: 1; stroke-dasharray: none; stroke-linecap: butt; stroke-dashoffset: 0; stroke-linejoin: miter; stroke-miterlimit: 4; fill: rgb(247,241,231); fill-rule: evenodd; opacity: 1;" vector-effect="non-scaling-stroke"  transform=" translate(-271.21, -33.49)" d="M 271.183 46.3735 C 272.879 46.3735 274.048 45.5573 274.694 43.9234 C 275.338 42.2924 275.661 38.8017 275.661 33.4541 C 275.661 28.1436 275.338 24.6758 274.694 23.0547 C 274.048 21.4309 272.879 20.619 271.183 20.619 C 269.507 20.619 268.35 21.3966 267.715 22.9547 C 267.079 24.5128 266.762 28.0121 266.762 33.4541 C 266.762 38.9332 267.079 42.4568 267.715 44.022 C 268.35 45.5902 269.507 46.3735 271.183 46.3735 M 271.186 48.5114 C 266.34 48.5114 262.447 47.132 259.51 44.3746 C 256.57 41.6157 255.102 37.9749 255.102 33.4535 C 255.102 28.9507 256.57 25.3285 259.51 22.5882 C 262.447 19.8494 266.34 18.4785 271.186 18.4785 C 276.032 18.4785 279.934 19.8537 282.891 22.6025 C 285.849 25.3514 287.328 28.9679 287.328 33.4535 C 287.328 37.9563 285.843 41.5914 282.877 44.3603 C 279.91 47.1277 276.014 48.5114 271.186 48.5114" stroke-linecap="round" />
</g>
		<g transform="matrix(1 0 0 1 130.77 4.06)"  >
<path style="stroke: none; stroke-width: 1; stroke-dasharray: none; stroke-linecap: butt; stroke-dashoffset: 0; stroke-linejoin: miter; stroke-miterlimit: 4; fill: rgb(247,241,231); fill-rule: evenodd; opacity: 1;" vector-effect="non-scaling-stroke"  transform=" translate(-300.77, -34.1)" d="M 301.072 48.5119 L 288.386 24.3612 L 288.386 24.334 C 287.372 22.3828 285.999 21.3693 284.267 21.2935 L 284.267 19.6897 L 303.117 19.6897 L 303.117 21.2935 C 302.178 21.2935 301.486 21.4265 301.044 21.6881 C 300.601 21.9511 300.38 22.3642 300.38 22.9274 C 300.38 23.1518 300.412 23.372 300.478 23.5878 C 300.541 23.8037 300.666 24.0996 300.85 24.4755 L 305.604 34.8048 L 309.999 25.5719 C 310.146 25.2717 310.261 24.9487 310.344 24.6013 C 310.427 24.254 310.468 23.9023 310.468 23.5449 C 310.468 22.8131 310.205 22.2556 309.68 21.8711 C 309.155 21.4865 308.378 21.2935 307.346 21.2935 L 307.124 21.2935 L 307.124 19.6897 L 317.267 19.6897 L 317.267 21.2935 C 316.235 21.3507 315.378 21.6552 314.697 22.2098 C 314.015 22.7616 313.306 23.7708 312.569 25.2346 L 301.072 48.5119 Z" stroke-linecap="round" />
</g>
		<g transform="matrix(1 0 0 1 157.04 3.42)"  >
<path style="stroke: none; stroke-width: 1; stroke-dasharray: none; stroke-linecap: butt; stroke-dashoffset: 0; stroke-linejoin: miter; stroke-miterlimit: 4; fill: rgb(247,241,231); fill-rule: evenodd; opacity: 1;" vector-effect="non-scaling-stroke"  transform=" translate(-327.04, -33.47)" d="M 323.943 28.7536 L 326.486 28.7536 C 328.992 28.7536 330.53 28.5334 331.101 28.0917 C 331.673 27.6515 331.958 26.8109 331.958 25.5716 C 331.958 23.902 331.663 22.6498 331.073 21.815 C 330.484 20.9816 329.59 20.5628 328.392 20.5628 C 326.864 20.5628 325.739 21.2146 325.021 22.5197 C 324.302 23.8234 323.943 25.9018 323.943 28.7536 L 323.943 28.7536 Z M 339.889 42.6295 C 338.324 44.5436 336.527 46.0016 334.501 47.0065 C 332.474 48.01 330.308 48.5118 328.006 48.5118 C 325.905 48.5118 323.938 48.0815 322.105 47.2181 C 320.27 46.3547 318.691 45.1154 317.365 43.5015 C 316.277 42.1878 315.457 40.7298 314.906 39.1259 C 314.351 37.5207 314.076 35.7896 314.076 33.9327 C 314.076 32.0187 314.343 30.2361 314.878 28.5851 C 315.411 26.9341 316.222 25.376 317.309 23.9122 C 318.488 22.2798 320.078 20.9575 322.077 19.944 C 324.076 18.9306 326.107 18.4231 328.172 18.4231 C 331.763 18.4231 334.634 19.5409 336.78 21.7723 C 338.926 24.0066 340 26.9984 340 30.7507 L 323.999 30.7507 C 324.108 34.0914 325.176 36.8688 327.204 39.0831 C 329.231 41.2973 331.672 42.4051 334.529 42.4051 C 335.615 42.4051 336.6 42.2021 337.485 41.799 C 338.369 41.3959 339.172 40.7913 339.889 39.9836 L 339.889 42.6295 Z" stroke-linecap="round" />
</g>
</g>
</g>
<g transform="matrix(NaN NaN NaN NaN 0 0)"  >
<g style=""   >
</g>
</g>
</svg>