<?xml version="1.0" encoding="utf-8"?>
<!-- Generator: Adobe Illustrator 15.0.0, SVG Export Plug-In . SVG Version: 6.00 Build 0)  -->
<!DOCTYPE svg PUBLIC "-//W3C//DTD SVG 1.1//EN" "http://www.w3.org/Graphics/SVG/1.1/DTD/svg11.dtd">
<svg version="1.1" id="Layer_1" xmlns="http://www.w3.org/2000/svg" xmlns:xlink="http://www.w3.org/1999/xlink" x="0px" y="0px"
	 width="120px" height="60px" viewBox="0 0 120 60" enable-background="new 0 0 120 60" xml:space="preserve">
<path d="M16.823,16.313V25.5h-4.108v-9.188H9.376v-3.801h3.338V9.615c0-3.295,1.963-5.115,4.966-5.115
	c1.438,0,2.943,0.257,2.943,0.257v3.235h-1.658c-1.633,0-2.143,1.014-2.143,2.054v2.466h3.646l-0.583,3.801H16.823z"/>
<path d="M54.128,18.79c-0.074,1.473-0.41,2.777-1.484,3.852c-1.075,1.078-2.379,1.415-3.852,1.484c-1.518,0.086-6.066,0.086-7.584,0
	c-1.472-0.074-2.772-0.41-3.851-1.484s-1.415-2.379-1.485-3.852c-0.086-1.518-0.086-6.066,0-7.583
	c0.074-1.473,0.406-2.777,1.485-3.852s2.383-1.411,3.851-1.48c1.518-0.086,6.066-0.086,7.584,0c1.473,0.074,2.777,0.41,3.852,1.484
	c1.079,1.075,1.415,2.379,1.484,3.852C54.214,12.728,54.214,17.272,54.128,18.79z M52.537,15.001c0-1.338,0.111-4.209-0.369-5.419
	c-0.324-0.808-0.943-1.427-1.747-1.747c-1.206-0.476-4.081-0.369-5.418-0.369c-1.337,0-4.208-0.111-5.418,0.369
	c-0.808,0.324-1.427,0.943-1.747,1.747c-0.476,1.206-0.369,4.081-0.369,5.419c0,1.336-0.111,4.207,0.369,5.418
	c0.324,0.808,0.943,1.427,1.747,1.746c1.206,0.477,4.081,0.369,5.418,0.369c1.337,0,4.208,0.111,5.418-0.369
	c0.808-0.323,1.427-0.943,1.747-1.746C52.647,19.212,52.537,16.337,52.537,15.001z M49.715,15.001c0,2.607-2.104,4.712-4.713,4.712
	c-2.608,0-4.712-2.104-4.712-4.712c0-2.609,2.104-4.713,4.712-4.713C47.611,10.288,49.715,12.392,49.715,15.001z M48.066,15.001
	c0-1.69-1.374-3.064-3.064-3.064c-1.689,0-3.063,1.374-3.063,3.064c0,1.689,1.378,3.063,3.063,3.063
	C46.688,18.063,48.066,16.69,48.066,15.001z M49.908,11.194c-0.611,0-1.099-0.492-1.099-1.099s0.492-1.099,1.099-1.099
	s1.099,0.492,1.099,1.099C51.007,10.706,50.515,11.194,49.908,11.194z"/>
<path d="M65.813,8.019c0-1.218,0.988-2.206,2.206-2.206c1.218,0,2.207,0.988,2.207,2.206c0,1.218-0.989,2.227-2.207,2.227
	S65.813,9.237,65.813,8.019z M66.116,24.188V11.919h3.81v12.268H66.116z M80.382,24.188v-5.973c0-1.423-0.028-3.248-1.98-3.248
	c-1.98,0-2.284,1.547-2.284,3.146v6.074h-3.805V11.919h3.653v1.673h0.054c0.508-0.964,1.751-1.981,3.604-1.981
	c3.855,0,4.564,2.539,4.564,5.836v6.739h-0.004H80.382z"/>
<path d="M113.354,11.282c0,5.69-4.331,12.245-12.246,12.245c-2.438,0-4.704-0.705-6.609-1.932c0.347,0.039,0.68,0.053,1.04,0.053
	c2.012,0,3.864-0.68,5.343-1.838c-1.892-0.041-3.478-1.279-4.024-2.984c0.267,0.039,0.533,0.066,0.813,0.066
	c0.386,0,0.773-0.055,1.132-0.146c-1.972-0.4-3.451-2.132-3.451-4.225v-0.053c0.573,0.32,1.239,0.52,1.946,0.546
	c-1.16-0.773-1.919-2.092-1.919-3.584c0-0.799,0.213-1.532,0.586-2.172c2.119,2.612,5.303,4.317,8.874,4.504
	c-0.066-0.32-0.106-0.653-0.106-0.986c0-2.372,1.919-4.304,4.304-4.304c1.239,0,2.358,0.52,3.145,1.359
	c0.973-0.187,1.905-0.546,2.731-1.039c-0.32,1-1,1.839-1.892,2.372c0.866-0.093,1.706-0.333,2.479-0.666
	c-0.586,0.853-1.319,1.612-2.159,2.225C113.354,10.909,113.354,11.096,113.354,11.282z"/>
<path fill="#F7F1E7" d="M16.823,46.313V55.5h-4.108v-9.188H9.376v-3.801h3.338v-2.896c0-3.295,1.963-5.115,4.966-5.115
	c1.438,0,2.943,0.257,2.943,0.257v3.235h-1.658c-1.633,0-2.143,1.014-2.143,2.054v2.466h3.646l-0.583,3.801H16.823z"/>
<path fill="#F7F1E7" d="M54.128,48.79c-0.074,1.473-0.41,2.777-1.484,3.852c-1.075,1.078-2.379,1.415-3.852,1.484
	c-1.518,0.086-6.066,0.086-7.584,0c-1.472-0.074-2.772-0.41-3.851-1.484s-1.415-2.379-1.485-3.852c-0.086-1.518-0.086-6.065,0-7.583
	c0.074-1.473,0.406-2.777,1.485-3.852c1.079-1.075,2.383-1.412,3.851-1.48c1.518-0.087,6.066-0.087,7.584,0
	c1.473,0.073,2.777,0.41,3.852,1.484c1.079,1.074,1.415,2.379,1.484,3.852C54.214,42.729,54.214,47.272,54.128,48.79z
	 M52.537,45.001c0-1.338,0.111-4.209-0.369-5.419c-0.324-0.809-0.943-1.428-1.747-1.747c-1.206-0.476-4.081-0.369-5.418-0.369
	c-1.337,0-4.208-0.11-5.418,0.369c-0.808,0.323-1.427,0.943-1.747,1.747c-0.476,1.206-0.369,4.081-0.369,5.419
	c0,1.336-0.111,4.207,0.369,5.418c0.324,0.808,0.943,1.427,1.747,1.746c1.206,0.477,4.081,0.369,5.418,0.369
	c1.337,0,4.208,0.111,5.418-0.369c0.808-0.323,1.427-0.943,1.747-1.746C52.647,49.212,52.537,46.337,52.537,45.001z M49.715,45.001
	c0,2.607-2.104,4.712-4.713,4.712c-2.608,0-4.712-2.104-4.712-4.712c0-2.609,2.104-4.714,4.712-4.714
	C47.611,40.287,49.715,42.392,49.715,45.001z M48.066,45.001c0-1.69-1.374-3.064-3.064-3.064c-1.689,0-3.063,1.374-3.063,3.064
	c0,1.689,1.378,3.063,3.063,3.063C46.688,48.063,48.066,46.69,48.066,45.001z M49.908,41.193c-0.611,0-1.099-0.492-1.099-1.099
	s0.492-1.099,1.099-1.099s1.099,0.492,1.099,1.099C51.007,40.706,50.515,41.193,49.908,41.193z"/>
<path fill="#F7F1E7" d="M65.813,38.019c0-1.218,0.988-2.206,2.206-2.206c1.218,0,2.207,0.988,2.207,2.206s-0.989,2.228-2.207,2.228
	S65.813,39.236,65.813,38.019z M66.116,54.188V41.92h3.81v12.268H66.116z M80.382,54.188v-5.973c0-1.423-0.028-3.248-1.98-3.248
	c-1.98,0-2.284,1.547-2.284,3.146v6.074h-3.805V41.92h3.653v1.673h0.054c0.508-0.964,1.751-1.981,3.604-1.981
	c3.855,0,4.564,2.539,4.564,5.837v6.739h-0.004H80.382z"/>
<path fill="#F7F1E7" d="M113.354,41.282c0,5.69-4.331,12.245-12.246,12.245c-2.438,0-4.704-0.705-6.609-1.932
	c0.347,0.039,0.68,0.053,1.04,0.053c2.012,0,3.864-0.68,5.343-1.838c-1.892-0.041-3.478-1.279-4.024-2.984
	c0.267,0.039,0.533,0.066,0.813,0.066c0.386,0,0.773-0.055,1.132-0.146c-1.972-0.4-3.451-2.133-3.451-4.225v-0.053
	c0.573,0.319,1.239,0.52,1.946,0.546c-1.16-0.772-1.919-2.093-1.919-3.585c0-0.799,0.213-1.531,0.586-2.172
	c2.119,2.612,5.303,4.318,8.874,4.504c-0.066-0.319-0.106-0.652-0.106-0.986c0-2.371,1.919-4.303,4.304-4.303
	c1.239,0,2.358,0.52,3.145,1.358c0.973-0.187,1.905-0.546,2.731-1.039c-0.32,0.999-1,1.839-1.892,2.372
	c0.866-0.094,1.706-0.334,2.479-0.666c-0.586,0.852-1.319,1.611-2.159,2.225C113.354,40.909,113.354,41.096,113.354,41.282z"/>
<rect fill="none" width="120" height="60"/>
</svg>
